<?xml version="1.0" standalone="no"?>
<!DOCTYPE svg PUBLIC "-//W3C//DTD SVG 1.1//EN" "http://www.w3.org/Graphics/SVG/1.1/DTD/svg11.dtd" >
<svg>
<metadata>
Created by FontForge 20090914 at Sun Aug 27 10:39:22 2017
 By www-data
Copyright (c) 2005 The Hoefler Type Foundry, Inc., dba Hoefler &#38; Frere-Jones. All Rights Reserved.
</metadata>
<defs>
<font id="GothamProNarrow-Bold" horiz-adv-x="500" >
  <font-face 
    font-family="Gotham Pro Narrow Bold"
    font-weight="700"
    font-stretch="normal"
    units-per-em="1000"
    panose-1="2 0 8 6 3 0 0 2 0 4"
    ascent="800"
    descent="-200"
    x-height="536"
    cap-height="700"
    bbox="-60 -163 1077 926"
    underline-thickness="20"
    underline-position="-113"
    unicode-range="U+0020-U+FB04"
  />
<missing-glyph 
d="M0 0v700h500v-700h-500zM81 49h339l-170 255zM49 96l171 254l-171 254v-508zM450 96v508l-171 -254zM250 395l170 255h-339z" />
    <glyph glyph-name="fi" unicode="fi" horiz-adv-x="605" 
d="M545 593h-148v129h148v-129zM324 416h-103.001v-416h-141v416h-54v117h54v35c0 106.667 52 160 156 160c33.333 0 63 -4 89 -12v-117c-17.333 6 -34.666 9 -51.999 9c-35.333 0 -53 -18.333 -53 -55v-21h104v-116zM541.999 0h-142v536h142v-536z" />
    <glyph glyph-name="fl" unicode="fl" horiz-adv-x="605" 
d="M324 416h-103.001v-416h-141v416h-54v117h54v35c0 106.667 52 160 156 160c33.333 0 63 -4 89 -12v-117c-17.333 6 -34.666 9 -51.999 9c-35.333 0 -53 -18.333 -53 -55v-21h104v-116zM541.999 0h-142v722h142v-722z" />
    <glyph glyph-name="ffi" unicode="ffi" horiz-adv-x="939" 
d="M324 416h-103.001v-416h-141v416h-54v117h54v35c0 106.667 52 160 156 160c33.333 0 63 -4 89 -12v-117c-17.333 6 -34.666 9 -51.999 9c-35.333 0 -53 -18.333 -53 -55v-20h104v-117zM659.999 416h-103v-416h-141v416h-54v117h54v35c0 106.667 52 160 156 160
c33.333 0 63 -4 89 -12v-117c-16.667 6 -34 9 -52 9c-35.333 0 -53 -18.333 -53 -55v-20h104v-117zM879.999 593h-148v129h148v-129zM875.999 0h-142v536h142v-536z" />
    <glyph glyph-name="ffl" unicode="ffl" horiz-adv-x="939" 
d="M324 416h-103.001v-416h-141v416h-54v117h54v35c0 106.667 52 160 156 160c33.333 0 63 -4 89 -12v-117c-17.333 6 -34.666 9 -51.999 9c-35.333 0 -53 -18.333 -53 -55v-20h104v-117zM659.999 416h-103v-416h-141v416h-54v117h54v35c0 106.667 52 160 156 160
c33.333 0 63 -4 89 -12v-117c-16.667 6 -34 9 -52 9c-35.333 0 -53 -18.333 -53 -55v-20h104v-117zM875.999 0h-142v722h142v-722z" />
    <glyph glyph-name=".notdef" 
d="M0 0v700h500v-700h-500zM81 49h339l-170 255zM49 96l171 254l-171 254v-508zM450 96v508l-171 -254zM250 395l170 255h-339z" />
    <glyph glyph-name="space" unicode=" " horiz-adv-x="257" 
 />
    <glyph glyph-name="exclam" unicode="!" horiz-adv-x="293" 
d="M231 680l-46 -448h-77l-45 448v20h168v-20zM224 0h-155v153h155v-153z" />
    <glyph glyph-name="quotedbl" unicode="&#x22;" horiz-adv-x="467" 
d="M434 694l-99 -313h-67l12 319h154v-6zM220 694l-100 -313h-67l13 319h154v-6z" />
    <glyph glyph-name="numbersign" unicode="#" horiz-adv-x="603" 
d="M574 429h-86l-22 -154h79v-122h-97l-22 -153h-116l22 153h-120l-23 -153h-115l22 153h-68v122h86l22 154h-78v122h97l21 149h116l-22 -149h121l21 149h116l-22 -149h68v-122zM373 429h-121l-22 -154h121z" />
    <glyph glyph-name="dollar" unicode="$" horiz-adv-x="555" 
d="M332 -101l-97 0.00195312v101c-72.667 9.33301 -137.667 34.666 -195 75.999l55 117c56.667 -40 107.667 -63.333 153 -70v169c-68 28 -117.167 57.667 -147.5 89s-45.5 73.666 -45.5 126.999v1c0 51.333 16.5 94 49.5 128s76.5 54.667 130.5 62v64h97v-63
c56.667 -6.66699 109 -26 157 -58l-47 -120c-45.333 28.667 -86.333 46.667 -123 54v-159c76 -34 127.833 -66.833 155.5 -98.5s41.5 -73.5 41.5 -125.5v-1c0 -50.667 -16.833 -93 -50.5 -127s-78.167 -55 -133.5 -63v-103zM384 186.002c0 16.667 -4.66699 30.667 -14 42
s-26.333 23 -51 35v-140c43.333 5.33301 65 26 65 62v1zM187 518.002c0 -16 4.16699 -29 12.5 -39s24.5 -20.667 48.5 -32v130c-40.667 -6 -61 -25.333 -61 -58v-1z" />
    <glyph glyph-name="percent" unicode="%" horiz-adv-x="773" 
d="M344 522c0 -51.333 -14.167 -93.667 -42.5 -127s-65.166 -50 -110.499 -50s-82 16.5 -110 49.5s-42 75.167 -42 126.5v9c0 51.333 14.167 93.666 42.5 126.999s65.166 50 110.499 50s82 -16.667 110 -50s42 -75.666 42 -126.999v-8zM667 699.999l-456 -700h-104l455 700
h105zM734 169.999c0 -51.333 -14.332 -93.665 -42.999 -126.998s-65.667 -50 -111 -50c-44.667 0 -81 16.667 -109 50s-42 75.666 -42 126.999v8c0 51.333 14.167 93.666 42.5 126.999s65.166 50 110.499 50s82 -16.5 110 -49.5s42 -75.167 42 -126.5v-9zM246.001 522v7
c0 27.333 -5 49.166 -15 65.499s-23.333 24.5 -40 24.5c-17.333 0 -30.666 -7.83301 -39.999 -23.5s-14 -37.5 -14 -65.5v-7c0 -27.333 5 -49.166 15 -65.499s23.333 -24.5 40 -24.5c17.333 0 30.666 7.83301 39.999 23.5s14 37.5 14 65.5zM636.001 170l0.000976562 7
c0 27.333 -5 49.166 -15 65.499s-23.667 24.5 -41 24.5c-16.667 0 -29.667 -7.83301 -39 -23.5s-14 -37.5 -14 -65.5v-7c0 -27.333 5 -49.166 15 -65.499s23.333 -24.5 40 -24.5c17.333 0 30.666 7.83301 39.999 23.5s14 37.5 14 65.5z" />
    <glyph glyph-name="ampersand" unicode="&#x26;" horiz-adv-x="617" 
d="M597 58l-104.999 -71.001l-67 76c-54 -48.667 -114.667 -73 -182 -73c-62 0 -113.5 18.167 -154.5 54.5s-61.5 84.166 -61.5 143.499v3c0 83.333 42.667 149 128 197c-34.667 52.667 -52 101 -52 145v4c0 48 17.5 89 52.5 123s81.5 51 139.5 51
c53.333 0 96.666 -16 129.999 -48s50 -72 50 -120v-4c0 -79.333 -44.333 -140.666 -133 -183.999l84 -101c15.333 27.333 33 64.333 53 111l107 -48c-22.667 -59.333 -48.667 -111.666 -78 -156.999zM350.001 531.999v4c0 19.333 -5.33301 34.5 -16 45.5
s-24.667 16.5 -42 16.5c-18 0 -32.333 -6 -43 -18s-16 -27.667 -16 -47v-4c0 -26.667 13 -57.667 39 -93c52 25.333 78 57.333 78 96zM349.001 147.999l-120 148.001c-38.667 -26 -58 -58.667 -58 -98v-4c0 -24.667 8.33301 -44.834 25 -60.501s37.667 -23.5 63 -23.5
c31.333 0 61.333 12.667 90 38z" />
    <glyph glyph-name="quotesingle" unicode="'" horiz-adv-x="254" 
d="M221 694l-99 -313h-69l13 319h155v-6z" />
    <glyph glyph-name="parenleft" unicode="(" horiz-adv-x="401" 
d="M363 -44l-46 -96.002c-175.333 82 -263 224.667 -263 428c0 202 87.667 344 263 426l46 -96c-59.333 -39.333 -102.5 -85.5 -129.5 -138.5s-40.5 -116.833 -40.5 -191.5c0 -75.333 13.5 -139.666 40.5 -192.999s70.167 -99.666 129.5 -138.999z" />
    <glyph glyph-name="parenright" unicode=")" horiz-adv-x="401" 
d="M347 288c0 -203.333 -87.667 -345.998 -263 -427.998l-47 96c60 39.333 103.333 85.666 130 138.999s40 117.666 40 192.999c0 74.667 -13.5 138.667 -40.5 192s-70.167 99.333 -129.5 138l47 96c175.333 -82 263 -224 263 -426z" />
    <glyph glyph-name="asterisk" unicode="*" horiz-adv-x="390" 
d="M351 496l-42 -71l-90 71l17 -117h-82l17 117l-90 -71l-41 71l105 44l-105 44l41 71l90 -71l-17 117h82l-17 -117l90 71l42 -71l-106 -44z" />
    <glyph glyph-name="plus" unicode="+" horiz-adv-x="579" 
d="M525 287h-169v-173h-133v173h-169v130h169v173h133v-173h169v-130z" />
    <glyph glyph-name="comma" unicode="," horiz-adv-x="266" 
d="M210 25c0 -118.667 -58.332 -180.999 -174.999 -186.999l-11 59c34 4.66699 58.667 16.167 74 34.5s21.666 41.166 18.999 68.499h-62v153h155v-128z" />
    <glyph glyph-name="hyphen" unicode="-" horiz-adv-x="386" 
d="M339 241h-293v138h293v-138z" />
    <glyph glyph-name="period" unicode="." horiz-adv-x="266" 
d="M210 0h-155v153h155v-153z" />
    <glyph glyph-name="slash" unicode="/" horiz-adv-x="463" 
d="M473 789l-376 -908h-119l375 908h120z" />
    <glyph glyph-name="zero" unicode="0" horiz-adv-x="629" 
d="M584 344c0 -107.333 -24.5 -193.333 -73.5 -258s-114.5 -97 -196.5 -97s-147.333 32.167 -196 96.5s-73 150.166 -73 257.499v13c0 107.333 24.5 193.333 73.5 258s114.5 97 196.5 97s147.333 -32.167 196 -96.5s73 -150.166 73 -257.499v-13zM437 343l-0.000976562 12
c0 72.667 -11.167 128.5 -33.5 167.5s-52.166 58.5 -89.499 58.5c-38 0 -67.833 -19.167 -89.5 -57.5s-32.5 -93.833 -32.5 -166.5v-12c0 -72.667 11 -128.5 33 -167.5s52 -58.5 90 -58.5s67.833 19.167 89.5 57.5s32.5 93.833 32.5 166.5z" />
    <glyph glyph-name="one" unicode="1" horiz-adv-x="371" 
d="M293 0h-143v556l-107 -28l-22 125l173 52h99v-705z" />
    <glyph glyph-name="two" unicode="2" horiz-adv-x="532" 
d="M488 0l-447 -0.000976562v116l198 215c37.333 38.667 63.166 69.667 77.499 93s21.5 47 21.5 71c0 25.333 -7.66699 45.333 -23 60s-35.666 22 -60.999 22c-23.333 0 -44.5 -6 -63.5 -18s-40.5 -31 -64.5 -57l-75 97c30.667 37.333 62.667 64.833 96 82.5
s74 26.5 122 26.5c65.333 0 117.5 -17.667 156.5 -53s58.5 -83.333 58.5 -144v-3c0 -45.333 -10.667 -84.666 -32 -117.999s-59.333 -76.333 -114 -129l-110 -132h260v-129z" />
    <glyph glyph-name="three" unicode="3" horiz-adv-x="533" 
d="M487 216c0 -66.667 -21.333 -121 -64 -163s-99.334 -63 -170.001 -63c-91.333 0 -165.333 30 -222 90l74 105c44 -42.667 92 -64 144 -64c28.667 0 51.834 8 69.501 24s26.5 37.667 26.5 65v4c0 61.333 -44 93 -132 95h-45l-17 92l151 171h-240v128h416v-114l-159 -173
c112 -22.667 168 -86.667 168 -192v-5z" />
    <glyph glyph-name="four" unicode="4" horiz-adv-x="598" 
d="M560 144h-83v-144h-137v144h-297l-17 105l324 455h127v-441h83v-119zM340 263v230l-158 -230h158z" />
    <glyph glyph-name="five" unicode="5" horiz-adv-x="541" 
d="M495 230c0 -74 -22.166 -132.499 -66.499 -175.499s-103.833 -64.5 -178.5 -64.5c-82 0 -152.333 26 -211 78l65 114c46.667 -39.333 93.667 -59 141 -59c33.333 0 59.666 9 78.999 27s29 43.333 29 76v5c0 31.333 -9.5 55.166 -28.5 71.499s-45.167 24.5 -78.5 24.5
c-31.333 0 -63.333 -7 -96 -21l-80 53l20 341h376v-129h-257l-8 -127c25.333 6.66699 51.333 10 78 10c64 0 116 -18 156 -54s60 -91.333 60 -166v-4z" />
    <glyph glyph-name="six" unicode="6" horiz-adv-x="574" 
d="M530 230c0 -71.333 -22.1689 -129.333 -66.502 -174s-100.5 -67 -168.5 -67c-71.333 0 -127.666 21 -168.999 63c-53.333 53.333 -80 145 -80 275v4c0 120.667 23.333 214 70 280s114.667 99 204 99c68 0 127.667 -19.333 179 -58l-57 -119
c-41.333 30.667 -81.666 46 -120.999 46c-38 0 -68 -15 -90 -45s-34.667 -71.667 -38 -125c38.667 30 81.667 45 129 45c60 0 109.667 -18.5 149 -55.5s59 -91.167 59 -162.5v-6zM388.998 224l-0.000976562 4.99902c0 32.667 -9 58.334 -27 77.001s-41.667 28 -71 28
c-31.333 0 -55.666 -9.33301 -72.999 -28c-18 -18 -27 -43.333 -27 -76v-6c0 -35.333 9 -62.5 27 -81.5s42.333 -28.5 73 -28.5s54.667 9.66699 72 29s26 46.333 26 81z" />
    <glyph glyph-name="seven" unicode="7" horiz-adv-x="527" 
d="M486 593l-256 -593h-157l256 570h-277v130h434v-107z" />
    <glyph glyph-name="eight" unicode="8" horiz-adv-x="553" 
d="M515 195c0 -63.333 -22.167 -113.334 -66.5 -150.001s-101.833 -55 -172.5 -55c-69.333 0 -126.5 18.5 -171.5 55.5s-67.5 86.167 -67.5 147.5v3c0 79.333 34.667 136.333 104 171c-56 34 -84 84.333 -84 151v4c0 54 20.5 98.833 61.5 134.5s93.5 53.5 157.5 53.5
s116.5 -17.833 157.5 -53.5s61.5 -80.5 61.5 -134.5v-4c0 -67.333 -28 -117.666 -84 -150.999c69.333 -38 104 -94 104 -168v-4zM359 502.999v3.00098c0 26 -7.33301 47 -22 63s-35 24 -61 24c-25.333 0 -45.5 -7.83301 -60.5 -23.5s-22.5 -36.5 -22.5 -62.5v-3
c0 -27.333 7.5 -49.333 22.5 -66s35.167 -25 60.5 -25s45.5 8.16699 60.5 24.5s22.5 38.166 22.5 65.499zM375 203v4c0 29.333 -9.16699 52.166 -27.5 68.499s-42.166 24.5 -71.499 24.5s-53.166 -8.16699 -71.499 -24.5s-27.5 -39.166 -27.5 -68.499v-4
c0 -30 8.66699 -53.333 26 -70s41.666 -25 72.999 -25s55.666 8.33301 72.999 25s26 40 26 70z" />
    <glyph glyph-name="nine" unicode="9" horiz-adv-x="574" 
d="M529 369c0 -121.333 -23.667 -214.832 -71 -280.499s-115 -98.5 -203 -98.5c-70.667 0 -133.667 20.667 -189 62l57 119c43.333 -33.333 87 -50 131 -50c38 0 68.167 14.667 90.5 44s34.833 69.666 37.5 120.999c-35.333 -30.667 -78 -46 -128 -46
c-61.333 0 -111.5 19 -150.5 57s-58.5 92.667 -58.5 164v6c0 72 22 130.667 66 176s100.333 68 169 68c70.667 0 127 -21 169 -63c53.333 -53.333 80 -145 80 -275v-4zM384 467.001v5.99902c0 36.667 -8.83301 64.667 -26.5 84s-42.167 29 -73.5 29
s-55.5 -9.83301 -72.5 -29.5s-25.5 -47.5 -25.5 -83.5v-5c0 -33.333 9 -59.666 27 -78.999s41.667 -29 71 -29c28.667 0 52.667 9 72 27c18.667 20 28 46.667 28 80z" />
    <glyph glyph-name="colon" unicode=":" horiz-adv-x="276" 
d="M215 383h-155v153h155v-153zM215 0h-155v153h155v-153z" />
    <glyph glyph-name="semicolon" unicode=";" horiz-adv-x="276" 
d="M215 383h-155v153h155v-153zM215 25c0 -118.667 -58.332 -180.999 -174.999 -186.999l-11 59c34 4.66699 58.667 16.167 74 34.5s21.666 41.166 18.999 68.499h-62v153h155v-128z" />
    <glyph glyph-name="less" unicode="&#x3c;" horiz-adv-x="555" 
d="M490 74l-426 209v138l426 209v-141l-293 -136l293 -136v-143z" />
    <glyph glyph-name="equal" unicode="=" horiz-adv-x="555" 
d="M501 411h-447v133h447v-133zM501 160h-447v133h447v-133z" />
    <glyph glyph-name="greater" unicode="&#x3e;" horiz-adv-x="555" 
d="M490 283l-425 -209v141l292 136l-292 136v143l425 -209v-138z" />
    <glyph glyph-name="question" unicode="?" horiz-adv-x="477" 
d="M446 505c0 -100.667 -57.666 -165.334 -172.999 -194.001l-11 -79h-95l-19 166l4 5c101.333 8.66699 152 41.334 152 98.001v2c0 22.667 -8 40.5 -24 53.5s-37.667 19.5 -65 19.5c-47.333 0 -91 -18.333 -131 -55l-64 103c56 56 124 84 204 84
c67.333 0 121.166 -17.833 161.499 -53.5s60.5 -84.167 60.5 -145.5v-4zM291.001 0h-155v153h155v-153z" />
    <glyph glyph-name="at" unicode="@" horiz-adv-x="877" 
d="M831 343c0 -83.333 -17.667 -150.336 -53 -201.003s-81 -76 -137 -76c-65.333 0 -111 22 -137 66c-37.333 -43.333 -81.666 -65 -132.999 -65c-44 0 -80.5 15.5 -109.5 46.5s-43.5 72.5 -43.5 124.5c0 73.333 20.167 136.666 60.5 189.999s87.166 80 140.499 80
c50.667 0 90 -22 118 -66l10 54l112 -19l-46 -264c-2.66699 -11.333 -4 -25.333 -4 -42c0 -17.333 5.33301 -31.166 16 -41.499s25.334 -15.5 44.001 -15.5c34 0 62.333 21.333 85 64s34 98.334 34 167.001c0 88 -32.333 164.333 -97 229s-145 97 -241 97
c-68 0 -130 -19.167 -186 -57.5s-99.333 -89.166 -130 -152.499s-46 -132 -46 -206c-0.666992 -107.333 32.166 -195.666 98.499 -264.999s150.833 -104 253.5 -104c78 0 149.667 19.333 215 58l21 -33c-73.333 -43.333 -152.666 -65 -237.999 -65
c-112.667 0 -206.334 38.667 -281.001 116s-112 175.333 -112 294c0 80.667 17.5 155.667 52.5 225s83.833 125 146.5 167s132 63 208 63c106 0 195.667 -36.667 269 -110s110 -159.333 110 -258zM513 327.997c0 24.667 -6.66699 44.167 -20 58.5s-31 21.5 -53 21.5
s-42 -9 -60 -27s-30.333 -41.667 -37 -71c-6 -28.667 -9 -50.334 -9 -65.001c0 -26 6.83301 -46.167 20.5 -60.5s31.834 -21.5 54.501 -21.5c21.333 0 41.166 9.33301 59.499 28s30.833 43.334 37.5 74.001c4.66699 21.333 7 42.333 7 63z" />
    <glyph glyph-name="A" unicode="A" horiz-adv-x="672" 
d="M655 0h-149l-52 152h-240l-52 -152h-145l250 704h138zM410 280l-76 228l-77 -228h153z" />
    <glyph glyph-name="B" unicode="B" horiz-adv-x="624" 
d="M589 193c0 -62 -22.833 -109.666 -68.5 -142.999s-107.167 -50 -184.5 -50h-266v700h259c69.333 0 125 -16 167 -48s63 -77 63 -135c0 -69.333 -31.667 -120.333 -95 -153c40.667 -16.667 71.667 -37.834 93 -63.501s32 -60.167 32 -103.5v-4zM416 493.001
c0 52.667 -32.667 79 -98 79h-107v-159h100c70 0 105 26.667 105 80zM445 209.001c0 56 -36.332 83.999 -108.999 83.999h-125v-165h129c33.333 0 59.166 6.83301 77.499 20.5s27.5 33.834 27.5 60.501z" />
    <glyph glyph-name="C" unicode="C" horiz-adv-x="617" 
d="M583 84c-31.333 -31.333 -64.8311 -54.834 -100.498 -70.501s-78.5 -23.5 -128.5 -23.5c-90 0 -164.167 32.667 -222.5 98s-87.5 151 -87.5 257v9c0 106 29.667 191.833 89 257.5s135.333 98.5 228 98.5c86 0 158.333 -26.667 217 -80l-68 -117
c-48.667 41.333 -97.334 62 -146.001 62c-50 0 -90.833 -19.667 -122.5 -59s-47.5 -92.666 -47.5 -159.999v-10c0 -68.667 15.667 -122.667 47 -162s72.666 -59 123.999 -59c50 0 99.667 21.333 149 64z" />
    <glyph glyph-name="D" unicode="D" horiz-adv-x="673" 
d="M629 346c0 -102.667 -30.667 -185.999 -92 -249.999s-142 -96 -242 -96h-225v700h225c100 0 180.667 -31.833 242 -95.5s92 -146.834 92 -249.501v-9zM479 345.001v9c0 68 -16.5 120.833 -49.5 158.5s-76.5 56.5 -130.5 56.5h-85v-438h85c54 0 97.5 18.667 130.5 56
s49.5 90 49.5 158z" />
    <glyph glyph-name="E" unicode="E" horiz-adv-x="568" 
d="M524 0h-454v700h450v-130h-307v-153h270v-130h-270v-157h311v-130z" />
    <glyph glyph-name="F" unicode="F" horiz-adv-x="552" 
d="M519 567h-305v-157h269v-132h-269v-278h-144v700h449v-133z" />
    <glyph glyph-name="G" unicode="G" horiz-adv-x="670" 
d="M616 77c-74.667 -58 -157.002 -87 -247.002 -87c-96 0 -174.167 32.333 -234.5 97s-90.5 150.667 -90.5 258v9c0 103.333 30.833 188.5 92.5 255.5s139.834 100.5 234.501 100.5c86 0 159.667 -24.333 221 -73l-68 -120c-49.333 38.667 -101 58 -155 58
c-50 0 -91.667 -20.5 -125 -61.5s-50 -93.167 -50 -156.5v-12c0 -70 16.833 -124.667 50.5 -164s76.834 -59 129.501 -59c39.333 0 74.333 9.66699 105 29v124h-127v126h264v-324z" />
    <glyph glyph-name="H" unicode="H" horiz-adv-x="659" 
d="M589 0h-144v285h-231v-285h-144v700h144v-281h231v281h144v-700z" />
    <glyph glyph-name="I" unicode="I" horiz-adv-x="295" 
d="M219 0h-144v700h144v-700z" />
    <glyph glyph-name="J" unicode="J" horiz-adv-x="483" 
d="M422 222c0 -76 -20 -133.5 -60 -172.5s-94.667 -58.5 -164 -58.5c-72.667 0 -133.667 25.333 -183 76l67 113c35.333 -35.333 71 -53 107 -53c56.667 0 85 34.333 85 103v470h148v-478z" />
    <glyph glyph-name="K" unicode="K" horiz-adv-x="632" 
d="M624 0h-171l-174 288l-65 -82v-206h-144v700h144v-302l228 302h172l-235 -296z" />
    <glyph glyph-name="L" unicode="L" horiz-adv-x="523" 
d="M497 0h-427v700h144v-567h283v-133z" />
    <glyph glyph-name="M" unicode="M" horiz-adv-x="753" 
d="M684 0h-142v447l-165 -289h-3l-164 286v-444h-140v700h152l154 -284l155 284h153v-700z" />
    <glyph glyph-name="N" unicode="N" horiz-adv-x="681" 
d="M612 0h-125l-276 423v-423h-141v700h133l266 -408v408h143v-700z" />
    <glyph glyph-name="O" unicode="O" horiz-adv-x="721" 
d="M676 345c0 -104 -29.667 -189.333 -89 -256s-135 -100 -227 -100c-92.667 0 -168.5 33 -227.5 99s-88.5 151 -88.5 255v12c0 104.667 29.667 190.167 89 256.5s135.333 99.5 228 99.5c92 0 167.5 -33 226.5 -99s88.5 -151 88.5 -255v-12zM527 343v12
c0 68 -15.5 122.167 -46.5 162.5s-71.167 60.5 -120.5 60.5c-50 0 -90.167 -19.833 -120.5 -59.5s-45.5 -93.5 -45.5 -161.5v-12c0 -68 15.5 -122.167 46.5 -162.5s71.167 -60.5 120.5 -60.5c50 0 90.167 19.833 120.5 59.5s45.5 93.5 45.5 161.5z" />
    <glyph glyph-name="P" unicode="P" horiz-adv-x="583" 
d="M558 458c0 -78 -24.5 -138.333 -73.5 -181s-111.833 -64 -188.5 -64h-82v-213h-144v700h232c78.667 0 141 -21.5 187 -64.5s69 -102.167 69 -177.5zM412 455c0 37.333 -10 65.667 -30 85s-48 29 -84 29h-84v-226h85c34.667 0 62.167 10.167 82.5 30.5
s30.5 47.5 30.5 81.5z" />
    <glyph glyph-name="Q" unicode="Q" horiz-adv-x="723" 
d="M691 76l-86.999 -95l-68 63c-50.667 -36.667 -109.334 -55 -176.001 -55c-92.667 0 -168.5 33 -227.5 99s-88.5 151 -88.5 255v12c0 104.667 29.667 190.167 89 256.5s135.333 99.5 228 99.5c92 0 167.5 -33 226.5 -99s88.5 -151 88.5 -255v-12
c0 -80 -18 -149.667 -54 -209zM527.001 343l-0.000976562 12c0 68 -15.5 122.167 -46.5 162.5s-71.167 60.5 -120.5 60.5c-50 0 -90.167 -19.833 -120.5 -59.5s-45.5 -93.5 -45.5 -161.5v-12c0 -70 15.5 -124.833 46.5 -164.5s72.167 -59.5 123.5 -59.5
c26.667 0 50.334 5 71.001 15l-98 86l86 96l89 -82c10 30 15 65.667 15 107z" />
    <glyph glyph-name="R" unicode="R" horiz-adv-x="625" 
d="M599 0h-165l-128 230h-92v-230h-144v700h261c78 0 139.167 -20 183.5 -60s66.5 -97.333 66.5 -172c0 -100 -43.333 -169.333 -130 -208zM435 461v4c0 69.333 -37.667 104 -113 104h-108v-211h111c34 0 60.833 9 80.5 27s29.5 43.333 29.5 76z" />
    <glyph glyph-name="S" unicode="S" horiz-adv-x="545" 
d="M508 198c0 -64 -21.334 -114.328 -64.001 -150.995s-98.334 -55 -167.001 -55c-94 0 -176 29 -246 87l64 114c61.333 -47.333 121 -71 179 -71c28 0 50 5.66699 66 17s24 27.666 24 48.999c0 19.333 -7.66699 35.666 -23 48.999s-47 30.333 -95 51
c-28.667 12 -51.667 22.333 -69 31s-35.166 19.5 -53.499 32.5s-32.333 26.167 -42 39.5s-17.667 29.666 -24 48.999s-9.5 41.333 -9.5 66c0 60.667 20.833 109.5 62.5 146.5s95.167 55.5 160.5 55.5c82 0 153.333 -22.667 214 -68l-56 -119c-58 38 -110 57 -156 57
c-25.333 0 -45.166 -5.66699 -59.499 -17s-21.5 -26.333 -21.5 -45c0 -20.667 7.5 -36.667 22.5 -48s49.167 -29 102.5 -53c68.667 -30.667 117.667 -61.334 147 -92.001s44 -72.334 44 -125.001z" />
    <glyph glyph-name="T" unicode="T" horiz-adv-x="551" 
d="M522 566h-174v-566h-145v566h-175v134h494v-134z" />
    <glyph glyph-name="U" unicode="U" horiz-adv-x="654" 
d="M592 274c0 -93.333 -23.667 -163.998 -71 -211.998s-112.333 -72 -195 -72s-147.5 23.833 -194.5 71.5s-70.5 117.5 -70.5 209.5v429h144v-430c0 -48.667 10.667 -85.334 32 -110.001s51.333 -37 90 -37s68.667 12.167 90 36.5s32 60.166 32 107.499v433h143v-426z" />
    <glyph glyph-name="V" unicode="V" horiz-adv-x="638" 
d="M621 700l-236 -704h-133l-235 704h156l148 -482l148 482h152z" />
    <glyph glyph-name="W" unicode="W" horiz-adv-x="963" 
d="M940 700l-199 -704h-132l-128 445l-128 -445h-132l-199 704h153l116 -460l129 461h126l128 -461l117 460h149z" />
    <glyph glyph-name="X" unicode="X" horiz-adv-x="630" 
d="M606 0h-165l-128 232l-129 -232h-160l205 357l-197 343h165l119 -219l121 219h160l-196 -343z" />
    <glyph glyph-name="Y" unicode="Y" horiz-adv-x="616" 
d="M607 700l-227 -422v-278h-145v276l-227 424h164l137 -275l139 275h159z" />
    <glyph glyph-name="Z" unicode="Z" horiz-adv-x="598" 
d="M548 0h-497v111l318 460h-308v129h487v-111l-318 -460h318v-129z" />
    <glyph glyph-name="bracketleft" unicode="[" horiz-adv-x="411" 
d="M362 -130h-286v830h286v-108h-152v-614h152v-108z" />
    <glyph glyph-name="backslash" unicode="\" horiz-adv-x="463" 
d="M485 -119h-120l-375 908h120z" />
    <glyph glyph-name="bracketright" unicode="]" horiz-adv-x="411" 
d="M335 -130h-286v108h152v614h-152v108h286v-830z" />
    <glyph glyph-name="asciicircum" unicode="^" 
d="M427 496h-100l-78 121l-78 -121h-98l126 202h102z" />
    <glyph glyph-name="underscore" unicode="_" horiz-adv-x="556" 
d="M558 -157h-560v108h560v-108z" />
    <glyph glyph-name="grave" unicode="`" 
d="M347 593h-102l-124 122l118 54z" />
    <glyph glyph-name="a" unicode="a" horiz-adv-x="519" 
d="M467 0l-139.001 -0.000976562v57c-34.667 -44 -81 -66 -139 -66c-46 0 -84.167 14.333 -114.5 43s-45.5 68 -45.5 118v7c0 56.667 16.833 99.334 50.5 128.001s79.167 43 136.5 43c40 0 77.667 -7 113 -21v15c0 62.667 -34.333 94 -103 94
c-39.333 0 -82.666 -9.33301 -129.999 -28l-27 115c56 24.667 116 37 180 37c72.667 0 127.167 -18.667 163.5 -56s54.5 -91 54.5 -161v-325zM329.999 174.999l-0.000976562 45.998c-22.667 11.333 -49 17 -79 17c-26.667 0 -47.5 -6.16699 -62.5 -18.5
s-22.5 -30.166 -22.5 -53.499v-7c0 -21.333 6.33301 -37.666 19 -48.999s29.334 -17 50.001 -17c28 0 50.833 7.5 68.5 22.5s26.5 34.833 26.5 59.5z" />
    <glyph glyph-name="b" unicode="b" horiz-adv-x="587" 
d="M549 260c0 -86.667 -19.668 -153.332 -59.001 -199.999s-88 -70 -146 -70c-55.333 0 -103.666 26 -144.999 78v-68h-142v722h142v-260c38.667 56 87 84 145 84c57.333 0 105.833 -23.333 145.5 -70s59.5 -113.334 59.5 -200.001v-16zM407.999 262.002v12
c0 44.667 -10.167 80.5 -30.5 107.5s-45.5 40.5 -75.5 40.5s-54.833 -13.5 -74.5 -40.5s-29.5 -62.833 -29.5 -107.5v-12c0 -44.667 9.83301 -80.5 29.5 -107.5s44.5 -40.5 74.5 -40.5c30.667 0 56 13.5 76 40.5s30 62.833 30 107.5z" />
    <glyph glyph-name="c" unicode="c" horiz-adv-x="485" 
d="M458 64c-24 -24.667 -49.499 -43.3311 -76.499 -55.998s-60.5 -19 -100.5 -19c-71.333 0 -130 25.5 -176 76.5s-69 116.167 -69 195.5v11c0 79.333 23.333 144.666 70 195.999s105.667 77 177 77s128.666 -22.333 171.999 -67l-64 -106
c-32.667 31.333 -67.334 47 -104.001 47c-32 0 -58.333 -13.333 -79 -40s-31 -61.667 -31 -105v-12c0 -44.667 10.5 -80.334 31.5 -107.001s48.833 -40 83.5 -40s69.334 15.667 104.001 47z" />
    <glyph glyph-name="d" unicode="d" horiz-adv-x="587" 
d="M530 0l-142 -0.00195312v74c-38.667 -56 -87 -84 -145 -84c-57.333 0 -105.833 23.333 -145.5 70s-59.5 113.334 -59.5 200.001v16c0 86.667 19.667 153.334 59 200.001s88 70 146 70c56.667 0 105 -26 145 -78v254h142v-722zM390 261.998v12
c0 44.667 -10 80.5 -30 107.5s-45 40.5 -75 40.5s-55 -13.5 -75 -40.5s-30 -62.833 -30 -107.5v-12c0 -44.667 10 -80.5 30 -107.5s45 -40.5 75 -40.5s55 13.5 75 40.5s30 62.833 30 107.5z" />
    <glyph glyph-name="e" unicode="e" horiz-adv-x="534" 
d="M498 261c0 -18 -0.666016 -33.667 -1.99902 -47h-320c12.667 -71.333 51.334 -107 116.001 -107c42 0 81.667 16.667 119 50l64 -86c-49.333 -54.667 -112 -82 -188 -82c-72.667 0 -132.834 25 -180.501 75s-71.5 115.667 -71.5 197v10
c0 79.333 22.167 144.833 66.5 196.5s100.5 77.5 168.5 77.5c73.333 0 129.666 -26.5 168.999 -79.5s59 -121.167 59 -204.5zM361.001 309c-3.33301 37.333 -12.833 66.668 -28.5 88.001s-36.5 32 -62.5 32s-47.167 -10.333 -63.5 -31s-26.833 -50.334 -31.5 -89.001h186z
" />
    <glyph glyph-name="f" unicode="f" horiz-adv-x="336" 
d="M324 416h-103.001v-416h-141v416h-54v117h54v35c0 106.667 52 160 156 160c33.333 0 63 -4 89 -12v-117c-17.333 6 -34.666 9 -51.999 9c-35.333 0 -53 -18.333 -53 -55v-20h104v-117z" />
    <glyph glyph-name="g" unicode="g" horiz-adv-x="587" 
d="M530 99c0 -88.667 -22.002 -152.834 -66.002 -192.501s-110.667 -59.5 -200 -59.5c-71.333 0 -138 14.667 -200 44l36 113c53.333 -27.333 105.666 -41 156.999 -41c88.667 0 133 42.333 133 127v34c-20.667 -27.333 -42.667 -48.166 -66 -62.499
s-51.666 -21.5 -84.999 -21.5c-57.333 0 -105.166 22 -143.499 66s-57.5 107 -57.5 189c0 80.667 19.333 142.667 58 186s86.334 65 143.001 65c56 0 105.667 -26 149 -78v68h142v-437zM389.998 292c0 40 -10 72 -30 96s-45.333 36 -76 36s-55.667 -12 -75 -36
s-29 -56 -29 -96c0 -39.333 9.66699 -70.833 29 -94.5s44.333 -35.5 75 -35.5s56 11.833 76 35.5s30 55.167 30 94.5z" />
    <glyph glyph-name="h" unicode="h" horiz-adv-x="550" 
d="M496 0h-142.001v323c0 30.667 -6.66699 54.167 -20 70.5s-32 24.5 -56 24.5c-24.667 0 -44 -8.16699 -58 -24.5s-21 -39.833 -21 -70.5v-323h-142v722h142v-258c39.333 54.667 85.333 82 138 82c50.667 0 89.834 -16.167 117.501 -48.5s41.5 -76.5 41.5 -132.5v-365z" />
    <glyph glyph-name="i" unicode="i" horiz-adv-x="267" 
d="M208 593h-148v129h148v-129zM204 0h-142v536h142v-536z" />
    <glyph glyph-name="j" unicode="j" horiz-adv-x="268" 
d="M208 593h-148v129h148v-129zM205 5c0 -106 -52.667 -159 -158 -159c-18.667 0 -38.667 1.66699 -60 5v112c6 -1.33301 14.333 -2 25 -2c34 0 51 18.667 51 56v519h142v-531z" />
    <glyph glyph-name="k" unicode="k" horiz-adv-x="521" 
d="M516 0h-161l-112 214l-44 -56v-158h-142v722h142v-384l147 198h166l-170 -213z" />
    <glyph glyph-name="l" unicode="l" horiz-adv-x="267" 
d="M204 0h-142v722h142v-722z" />
    <glyph glyph-name="m" unicode="m" horiz-adv-x="838" 
d="M783 0h-141.999v323c0 30.667 -6.33301 54.167 -19 70.5s-30.667 24.5 -54 24.5c-24 0 -42.833 -8.16699 -56.5 -24.5s-20.5 -39.833 -20.5 -70.5v-323h-142v323c0 63.333 -24.667 95 -74 95c-23.333 0 -41.833 -8.16699 -55.5 -24.5s-20.5 -39.833 -20.5 -70.5v-323
h-142v536h142v-72c38.667 54.667 85 82 139 82c61.333 0 105.666 -26 132.999 -78c43.333 52 94 78 152 78c49.333 0 88.333 -15.5 117 -46.5s43 -75.5 43 -133.5v-366z" />
    <glyph glyph-name="n" unicode="n" horiz-adv-x="550" 
d="M496 0h-142.001v323c0 30.667 -6.66699 54.167 -20 70.5s-32 24.5 -56 24.5c-24.667 0 -44 -8.16699 -58 -24.5s-21 -39.833 -21 -70.5v-323h-142v536h142v-72c39.333 54.667 85.333 82 138 82c50.667 0 89.834 -16.167 117.501 -48.5s41.5 -76.5 41.5 -132.5v-365z" />
    <glyph glyph-name="o" unicode="o" horiz-adv-x="578" 
d="M542 262c0 -79.333 -24 -144.666 -72 -195.999s-108.667 -77 -182 -77c-72.667 0 -132.834 25.5 -180.501 76.5s-71.5 116.167 -71.5 195.5v11c0 79.333 24 144.666 72 195.999s108.667 77 182 77c72.667 0 132.834 -25.5 180.501 -76.5s71.5 -116.167 71.5 -195.5v-11z
M401 260v12c0 44 -10.333 80 -31 108s-48 42 -82 42c-34.667 0 -62 -13.667 -82 -41s-30 -63 -30 -107v-12c0 -44 10.5 -80 31.5 -108s48.5 -42 82.5 -42s61 13.667 81 41s30 63 30 107z" />
    <glyph glyph-name="p" unicode="p" horiz-adv-x="587" 
d="M549 260c0 -86.667 -19.668 -153.332 -59.001 -199.999s-88 -70 -146 -70c-55.333 0 -103.666 26 -144.999 78v-219h-142v687h142v-74c38.667 56 87 84 145 84c57.333 0 105.833 -23.333 145.5 -70s59.5 -113.334 59.5 -200.001v-16zM407.999 262.002v12
c0 44.667 -10.167 80.5 -30.5 107.5s-45.5 40.5 -75.5 40.5s-54.833 -13.5 -74.5 -40.5s-29.5 -62.833 -29.5 -107.5v-12c0 -44.667 9.83301 -80.5 29.5 -107.5s44.5 -40.5 74.5 -40.5c30.667 0 56 13.5 76 40.5s30 62.833 30 107.5z" />
    <glyph glyph-name="q" unicode="q" horiz-adv-x="587" 
d="M530 -151l-142 -0.00195312v225c-38.667 -56 -87 -84 -145 -84c-57.333 0 -105.833 23.333 -145.5 70s-59.5 113.334 -59.5 200.001v16c0 86.667 19.667 153.334 59 200.001s88 70 146 70c56.667 0 105 -26 145 -78v68h142v-687zM390 261.998v12
c0 44.667 -10 80.5 -30 107.5s-45 40.5 -75 40.5s-55 -13.5 -75 -40.5s-30 -62.833 -30 -107.5v-12c0 -44.667 10 -80.5 30 -107.5s45 -40.5 75 -40.5s55 13.5 75 40.5s30 62.833 30 107.5z" />
    <glyph glyph-name="r" unicode="r" horiz-adv-x="368" 
d="M345 391h-6c-44.667 0 -79.167 -14 -103.5 -42s-36.5 -69.667 -36.5 -125v-224h-142v536h142v-95c30 72 78.667 106.667 146 104v-154z" />
    <glyph glyph-name="s" unicode="s" horiz-adv-x="437" 
d="M405 156c0 -53.333 -17.498 -94.333 -52.498 -123s-80.167 -43 -135.5 -43c-71.333 0 -136 21.333 -194 64l46 105c52.667 -36.667 102 -55 148 -55c38.667 0 58 14 58 42c0 4 -0.666992 7.83301 -2 11.5s-3.83301 7.16699 -7.5 10.5s-7.16699 6.33301 -10.5 9
s-8.33301 5.66699 -15 9l-17 8.5l-21 10l-23 10.5c-44 20 -78.167 42.167 -102.5 66.5s-36.5 57.833 -36.5 100.5c0 50 17.167 89.5 51.5 118.5s78.166 43.5 131.499 43.5c60 0 115.667 -16 167 -48l-41 -108c-48.667 28 -90.667 42 -126 42c-34.667 0 -52 -12.667 -52 -38
c0 -4 0.666992 -7.66699 2 -11s3.66602 -6.66602 6.99902 -9.99902s6.66602 -6.33301 9.99902 -9s8.33301 -5.83398 15 -9.50098s12.334 -6.66699 17.001 -9l21 -10.5c9.33301 -4.66699 17 -8.66699 23 -12c22.667 -12 40.5 -22 53.5 -30s27 -18.667 42 -32
s26 -28.5 33 -45.5s10.5 -36.167 10.5 -57.5z" />
    <glyph glyph-name="t" unicode="t" horiz-adv-x="363" 
d="M326 18c-29.333 -17.333 -64.333 -26 -105 -26c-44.667 0 -79.5 10.667 -104.5 32s-37.5 58 -37.5 110v282h-54v120h54v137h142v-137h107v-120h-107v-253c0 -30.667 14.667 -46 44 -46c22.667 0 43 5 61 15v-114z" />
    <glyph glyph-name="u" unicode="u" horiz-adv-x="550" 
d="M492 0h-142v72c-39.333 -54.667 -85.333 -82 -138 -82c-50 0 -88.833 16.167 -116.5 48.5s-41.5 76.5 -41.5 132.5v365h142v-323c0 -30.667 6.5 -54.167 19.5 -70.5s31.5 -24.5 55.5 -24.5c24.667 0 44 8.16699 58 24.5s21 39.833 21 70.5v323h142v-536z" />
    <glyph glyph-name="v" unicode="v" horiz-adv-x="529" 
d="M512 536l-181 -539h-133l-181 539h148l100 -355l101 355h146z" />
    <glyph glyph-name="w" unicode="w" horiz-adv-x="760" 
d="M740 536l-144 -539h-131l-85 317l-87 -317h-130l-143 539h144l72 -317l84 318h121l84 -319l74 318h141z" />
    <glyph glyph-name="x" unicode="x" horiz-adv-x="516" 
d="M497 0h-151l-90 168l-90 -168h-148l161 273l-155 263h150l85 -157l85 157h147l-156 -261z" />
    <glyph glyph-name="y" unicode="y" horiz-adv-x="529" 
d="M512 536l-180 -541c-18 -53.333 -39.333 -91.5 -64 -114.5s-58.667 -34.5 -102 -34.5c-44.667 0 -85.334 10.333 -122.001 31l42 106c22 -12.667 42.667 -19 62 -19c22.667 0 39.334 11.667 50.001 35l-181 537h148l101 -358l100 358h146z" />
    <glyph glyph-name="z" unicode="z" horiz-adv-x="481" 
d="M445 0h-406v100l236 320h-229v116h399v-100l-237 -320h237v-116z" />
    <glyph glyph-name="braceleft" unicode="{" horiz-adv-x="434" 
d="M394 -47l-19 -94c-79.333 11.333 -135.666 32.333 -168.999 63s-50 72 -50 124c0 8.66699 1.66699 23.5 5 44.5s5 36.5 5 46.5c0 34 -8 58.333 -24 73s-41.667 22 -77 22h-24v110h24c35.333 0 61 7.33301 77 22s24 39 24 73c0 10 -1.66699 25.5 -5 46.5
s-5 35.833 -5 44.5c0 52 16.667 93.333 50 124s89.666 51.667 168.999 63l19 -94c-42 -10.667 -70.833 -23.834 -86.5 -39.501s-23.5 -38.167 -23.5 -67.5c0 -11.333 1.83301 -27.666 5.5 -48.999s5.5 -37 5.5 -47c0 -68 -36 -111.667 -108 -131
c72 -19.333 108 -63 108 -131c0 -10 -1.83301 -25.667 -5.5 -47s-5.5 -37.666 -5.5 -48.999c0 -29.333 7.83301 -51.833 23.5 -67.5s44.5 -28.834 86.5 -39.501z" />
    <glyph glyph-name="bar" unicode="|" horiz-adv-x="319" 
d="M216 -119h-112v908h112v-908z" />
    <glyph glyph-name="braceright" unicode="}" horiz-adv-x="436" 
d="M395 232h-24c-35.333 0 -61 -7.33301 -77 -22s-24 -39 -24 -73c0 -10 1.66699 -25.5 5 -46.5s5 -35.833 5 -44.5c0 -52 -16.667 -93.333 -50 -124s-89.666 -51.667 -168.999 -63l-19 94c42 10.667 70.833 23.834 86.5 39.501s23.5 38.167 23.5 67.5
c0 11.333 -1.83301 27.666 -5.5 48.999s-5.5 37 -5.5 47c0 68 36 111.667 108 131c-72 19.333 -108 63 -108 131c0 10 1.83301 25.667 5.5 47s5.5 37.666 5.5 48.999c0 29.333 -7.83301 51.833 -23.5 67.5s-44.5 28.834 -86.5 39.501l19 94
c79.333 -11.333 135.666 -32.333 168.999 -63s50 -72 50 -124c0 -8.66699 -1.66699 -23.5 -5 -44.5s-5 -36.5 -5 -46.5c0 -34 8 -58.333 24 -73s41.667 -22 77 -22h24v-110z" />
    <glyph glyph-name="asciitilde" unicode="~" horiz-adv-x="467" 
d="M422 369c-18.667 -86 -56.334 -129 -113.001 -129c-22.667 0 -48.667 6.66699 -78 20s-49.666 20 -60.999 20c-12 0 -21.5 -3.83301 -28.5 -11.5s-13.833 -20.167 -20.5 -37.5l-76 23c19.333 86.667 57 130 113 130c21.333 0 47.333 -7 78 -21
c29.333 -13.333 49.333 -20 60 -20c12.667 0 22.5 3.83301 29.5 11.5s13.833 20.167 20.5 37.5z" />
    <glyph glyph-name="uni00A0" unicode="&#xa0;" horiz-adv-x="257" 
 />
    <glyph glyph-name="exclamdown" unicode="&#xa1;" horiz-adv-x="293" 
d="M224 546h-155v154h155v-154zM231 0h-168v20l45 448h77l46 -448v-20z" />
    <glyph glyph-name="cent" unicode="&#xa2;" horiz-adv-x="496" 
d="M379 705l-10.999 -83.998c31.333 -9.33301 61.666 -28 90.999 -56l-63 -105c-18 17.333 -37 29.666 -57 36.999l-42 -296c34 0.666992 68 16.334 102 47.001l60 -95c-50.667 -50.667 -106.334 -76.667 -167.001 -78l-10 -81h-97l13 96c-48 18 -86.333 50.167 -115 96.5
s-43 100.166 -43 161.499v10c0 76.667 21.833 140.667 65.5 192s99.834 78.666 168.501 81.999l9 73h96zM176.001 349.002c0 -63.333 17.334 -106.666 52.001 -129.999l41 285c-28.667 -4.66699 -51.334 -20.334 -68.001 -47.001s-25 -59 -25 -97v-11z" />
    <glyph glyph-name="sterling" unicode="&#xa3;" horiz-adv-x="555" 
d="M517 0h-469.001v95l68 24v151h-67v122h67v90c0 74 19.333 130.333 58 169s91.334 58 158.001 58c74.667 0 135 -27.667 181 -83l-82 -102c-28.667 32.667 -59 49 -91 49c-22 0 -40 -7 -54 -21c-16 -16 -24 -40 -24 -72v-88h188v-122h-188v-144h255v-126z" />
    <glyph glyph-name="currency" unicode="&#xa4;" horiz-adv-x="617" 
d="M584 91c-54.667 -68 -120.999 -101.997 -198.999 -101.997c-67.333 0 -123.833 20.167 -169.5 60.5s-77.167 97.166 -94.5 170.499h-82v97h68v70h-68v97h84c18 71.333 50 127 96 167s101.667 60 167 60c45.333 0 83.166 -8 113.499 -24s57.833 -39.333 82.5 -70l-81 -99
c-35.333 41.333 -73.333 62 -114 62c-54.667 0 -92.667 -32 -114 -96h159v-97h-178c-0.666992 -6.66699 -1 -17.334 -1 -32.001v-9c0 -12.667 0.333008 -22.334 1 -29.001h178v-97h-161c20.667 -66.667 61 -100 121 -100c22 0 41.5 5 58.5 15s35.833 26.333 56.5 49z" />
    <glyph glyph-name="yen" unicode="&#xa5;" horiz-adv-x="600" 
d="M369 257v-61h155v-103h-155v-93h-139v93h-154v103h154v61h-154v104h119l-183 339h161l128 -267l130 267h157l-185 -339h121v-104h-155z" />
    <glyph glyph-name="brokenbar" unicode="&#xa6;" 
d="M0 0v700h500v-700h-500zM81 49h339l-170 255zM49 96l171 254l-171 254v-508zM450 96v508l-171 -254zM250 395l170 255h-339z" />
    <glyph glyph-name="section" unicode="&#xa7;" horiz-adv-x="565" 
d="M522 350c0 -56.667 -28.668 -95.333 -86.001 -116c24.667 -22 37 -51.667 37 -89v-1c0 -47.333 -16.833 -84.666 -50.5 -111.999s-79.5 -41 -137.5 -41c-81.333 0 -147.666 24.667 -198.999 74l57 92c48 -37.333 93.667 -56 137 -56c39.333 0 59 12.333 59 37v1
c0 13.333 -6.83301 23.833 -20.5 31.5s-43.5 18.5 -89.5 32.5c-68.667 20.667 -116.834 41.334 -144.501 62.001s-41.5 48.667 -41.5 84v1c0 56.667 29 95.667 87 117c-25.333 23.333 -38 53.333 -38 90v1c0 46.667 16.833 83.5 50.5 110.5s80.167 40.5 139.5 40.5
c78 0 141.667 -23.667 191 -71l-57 -92c-42.667 36 -85.667 54 -129 54c-40 0 -60 -12 -60 -36v-1c0 -12 7.5 -22.833 22.5 -32.5s43.833 -20.834 86.5 -33.501c68.667 -20.667 116.834 -41.334 144.501 -62.001s41.5 -48.667 41.5 -84v-1zM393.999 330.001v2
c0 13.333 -7.33301 24.833 -22 34.5s-41.667 21.167 -81 34.5c-31.333 10.667 -55.333 16 -72 16c-14 0 -25.5 -4.66699 -34.5 -14s-13.5 -20.333 -13.5 -33v-2c0 -13.333 7.33301 -24.833 22 -34.5s41.667 -21.167 81 -34.5c31.333 -10.667 55.333 -16 72 -16
c14 0 25.5 4.66699 34.5 14s13.5 20.333 13.5 33z" />
    <glyph glyph-name="dieresis" unicode="&#xa8;" 
d="M417 596h-134v125h134v-125zM217 596h-134v125h134v-125z" />
    <glyph glyph-name="copyright" unicode="&#xa9;" horiz-adv-x="737" 
d="M693 355l0.000976562 -10.001c0 -100.667 -31.5 -185.167 -94.5 -253.5s-140.167 -102.5 -231.5 -102.5s-168 34 -230 102s-93 152.333 -93 253v10c0 100.667 31.333 185.334 94 254.001s139.667 103 231 103s168.166 -34.167 230.499 -102.5s93.5 -152.833 93.5 -253.5z
M652.001 344.999v10c0 90 -26.833 165.333 -80.5 226s-121.167 91 -202.5 91c-82 0 -150 -30.5 -204 -91.5s-81 -136.5 -81 -226.5v-11c0 -90 26.833 -165.167 80.5 -225.5s121.167 -90.5 202.5 -90.5c82 0 150 30.5 204 91.5s81 136.5 81 226.5zM500.001 205.999
c-34.667 -34.667 -76.6699 -51.998 -126.003 -51.998s-90 18.167 -122 54.5s-48 83.5 -48 141.5v5c0 58 16.333 105.333 49 142s74.334 55 125.001 55c46.667 0 86.334 -14.667 119.001 -44l-38 -66c-27.333 22.667 -53.666 34 -78.999 34
c-27.333 0 -49.5 -10.833 -66.5 -32.5s-25.5 -50.834 -25.5 -87.501v-6c0 -36.667 8.5 -65.834 25.5 -87.501s39.167 -32.5 66.5 -32.5c25.333 0 52.333 12 81 36z" />
    <glyph glyph-name="ordfeminine" unicode="&#xaa;" horiz-adv-x="348" 
d="M288 406h-77v32c-18.667 -25.333 -44 -38 -76 -38c-25.333 0 -46.333 8 -63 24s-25 37.667 -25 65v3c0 32 9.33301 55.833 28 71.5s43.667 23.5 75 23.5c20.667 0 41.334 -4 62.001 -12v9c0 34.667 -19 52 -57 52c-18.667 0 -42.334 -5.33301 -71.001 -16l-15 63
c31.333 14 64.333 21 99 21c80 0 120 -40 120 -120v-178zM294 285h-250v60h250v-60zM213 502v26.001c-18 6 -32.667 9 -44 9c-30.667 0 -46 -13.667 -46 -41v-1c0 -25.333 12.667 -38 38 -38c15.333 0 27.833 4.16699 37.5 12.5s14.5 19.166 14.5 32.499z" />
    <glyph glyph-name="guillemotleft" unicode="&#xab;" horiz-adv-x="593" 
d="M554 97l-110 -57l-157 224v8l157 224l109 -55l-123 -172zM303 97l-110 -57l-157 224v8l157 224l109 -55l-123 -172z" />
    <glyph glyph-name="logicalnot" unicode="&#xac;" horiz-adv-x="555" 
d="M359 411h-305v133h447v-303h-142v170z" />
    <glyph glyph-name="uni00AD" unicode="&#xad;" horiz-adv-x="386" 
d="M339 241h-293v138h293v-138z" />
    <glyph glyph-name="registered" unicode="&#xae;" horiz-adv-x="737" 
d="M693 355l0.000976562 -10.001c0 -100.667 -31.5 -185.167 -94.5 -253.5s-140.167 -102.5 -231.5 -102.5s-168 34 -230 102s-93 152.333 -93 253v10c0 100.667 31.333 185.334 94 254.001s139.667 103 231 103s168.166 -34.167 230.499 -102.5s93.5 -152.833 93.5 -253.5z
M652.001 344.999v10c0 90 -26.833 165.333 -80.5 226s-121.167 91 -202.5 91c-82 0 -150 -30.5 -204 -91.5s-81 -136.5 -81 -226.5v-11c0 -90 26.833 -165.167 80.5 -225.5s121.167 -90.5 202.5 -90.5c82 0 150 30.5 204 91.5s81 136.5 81 226.5zM519.001 425.999
l-0.000976562 -2c0 -54.667 -24 -92.667 -72 -114l81 -144h-90l-71 127h-51v-127h-79v385h141c42.667 0 76.834 -10.833 102.501 -32.5s38.5 -52.5 38.5 -92.5zM439 420.999v1c0 38.667 -21.333 58 -64 58h-59v-117h61c19.333 0 34.5 5.16699 45.5 15.5s16.5 24.5 16.5 42.5
z" />
    <glyph glyph-name="macron" unicode="&#xaf;" 
d="M416 602h-332v98h332v-98z" />
    <glyph glyph-name="degree" unicode="&#xb0;" horiz-adv-x="418" 
d="M363 534c0 -46 -15.333 -85.5 -46 -118.5s-67 -49.5 -109 -49.5s-78.167 16.5 -108.5 49.5s-45.5 72.5 -45.5 118.5v3c0 46 15.167 85.667 45.5 119s66.5 50 108.5 50s78.333 -16.667 109 -50s46 -73 46 -119v-3zM284 534v3c0 27.333 -7.33301 49.666 -22 66.999
s-32.667 26 -54 26s-39 -8.66699 -53 -26s-21 -39.666 -21 -66.999v-3c0 -27.333 7 -49.666 21 -66.999s31.667 -26 53 -26s39.333 8.66699 54 26s22 39.666 22 66.999z" />
    <glyph glyph-name="plusminus" unicode="&#xb1;" 
d="M0 0v700h500v-700h-500zM81 49h339l-170 255zM49 96l171 254l-171 254v-508zM450 96v508l-171 -254zM250 395l170 255h-339z" />
    <glyph glyph-name="twosuperior" unicode="&#xb2;" 
d="M0 0v700h500v-700h-500zM81 49h339l-170 255zM49 96l171 254l-171 254v-508zM450 96v508l-171 -254zM250 395l170 255h-339z" />
    <glyph glyph-name="threesuperior" unicode="&#xb3;" 
d="M0 0v700h500v-700h-500zM81 49h339l-170 255zM49 96l171 254l-171 254v-508zM450 96v508l-171 -254zM250 395l170 255h-339z" />
    <glyph glyph-name="acute" unicode="&#xb4;" 
d="M375 715l-124 -122h-102l108 176z" />
    <glyph glyph-name="mu" unicode="&#xb5;" horiz-adv-x="552" 
d="M495 0l-141.999 -0.000976562v60c-16.667 -23.333 -32.334 -40.166 -47.001 -50.499s-33 -15.5 -55 -15.5c-18.667 0 -36 4.33301 -52 13v-158h-142v687h142v-323c0 -30.667 6.5 -54.167 19.5 -70.5s31.5 -24.5 55.5 -24.5c24.667 0 44 8.16699 58 24.5
s21 39.833 21 70.5v323h142v-536z" />
    <glyph glyph-name="paragraph" unicode="&#xb6;" horiz-adv-x="521" 
d="M291 700l159 0.000976562v-700h-145v228h-17c-76 1.33301 -138.333 22.166 -187 62.499s-73 97.833 -73 172.5v1c0 75.333 24.167 133.5 72.5 174.5s111.833 61.5 190.5 61.5z" />
    <glyph glyph-name="periodcentered" unicode="&#xb7;" horiz-adv-x="272" 
d="M213 233h-155v153h155v-153z" />
    <glyph glyph-name="cedilla" unicode="&#xb8;" 
d="M313 13l-72 -176l-119 48l92 128h99z" />
    <glyph glyph-name="onesuperior" unicode="&#xb9;" 
d="M0 0v700h500v-700h-500zM81 49h339l-170 255zM49 96l171 254l-171 254v-508zM450 96v508l-171 -254zM250 395l170 255h-339z" />
    <glyph glyph-name="ordmasculine" unicode="&#xba;" horiz-adv-x="348" 
d="M309 550c0 -44 -12.833 -80.167 -38.5 -108.5s-58.167 -42.5 -97.5 -42.5c-38.667 0 -70.667 14 -96 42s-38 64 -38 108v6c0 44 12.833 80 38.5 108s57.834 42 96.501 42c39.333 0 71.666 -14 96.999 -42s38 -64 38 -108v-5zM302 285h-256v60h256v-60zM232 549v6
c0 24 -5.33301 43.833 -16 59.5s-25 23.5 -43 23.5s-32 -7.5 -42 -22.5s-15 -34.833 -15 -59.5v-7c0 -24 5.33301 -43.833 16 -59.5s24.667 -23.5 42 -23.5c18 0 32.167 7.66699 42.5 23s15.5 35.333 15.5 60z" />
    <glyph glyph-name="guillemotright" unicode="&#xbb;" horiz-adv-x="593" 
d="M558 264l-158 -224l-109 56l124 172l-124 171l109 57l158 -224v-8zM307 264l-158 -224l-110 56l125 172l-124 171l109 57l158 -224v-8z" />
    <glyph glyph-name="onequarter" unicode="&#xbc;" 
d="M0 0v700h500v-700h-500zM81 49h339l-170 255zM49 96l171 254l-171 254v-508zM450 96v508l-171 -254zM250 395l170 255h-339z" />
    <glyph glyph-name="onehalf" unicode="&#xbd;" 
d="M0 0v700h500v-700h-500zM81 49h339l-170 255zM49 96l171 254l-171 254v-508zM450 96v508l-171 -254zM250 395l170 255h-339z" />
    <glyph glyph-name="threequarters" unicode="&#xbe;" 
d="M0 0v700h500v-700h-500zM81 49h339l-170 255zM49 96l171 254l-171 254v-508zM450 96v508l-171 -254zM250 395l170 255h-339z" />
    <glyph glyph-name="questiondown" unicode="&#xbf;" horiz-adv-x="477" 
d="M186 700h155v-153h-155v153zM31 195c0 100.667 57.666 165.334 172.999 194.001l11 79h95l19 -166l-4 -5c-101.333 -8.66699 -152 -41.334 -152 -98.001v-2c0 -22.667 8 -40.5 24 -53.5s37.667 -19.5 65 -19.5c47.333 0 91 18.333 131 55l64 -103
c-56 -56 -124 -84 -204 -84c-67.333 0 -121.166 17.833 -161.499 53.5s-60.5 84.167 -60.5 145.5v4z" />
    <glyph glyph-name="Agrave" unicode="&#xc0;" horiz-adv-x="672" 
d="M655 0h-149l-52 152h-240l-52 -152h-145l250 704h138zM410 280l-76 228l-77 -228h153zM396 750h-102l-124 122l118 54z" />
    <glyph glyph-name="Aacute" unicode="&#xc1;" horiz-adv-x="672" 
d="M655 0h-149l-52 152h-240l-52 -152h-145l250 704h138zM410 280l-76 228l-77 -228h153zM500 872l-124 -122h-102l108 176z" />
    <glyph glyph-name="Acircumflex" unicode="&#xc2;" horiz-adv-x="672" 
d="M655 0h-149l-52 152h-240l-52 -152h-145l250 704h138zM410 280l-76 228l-77 -228h153zM509 750h-103l-71 79l-71 -79h-101l108 157h130z" />
    <glyph glyph-name="Atilde" unicode="&#xc3;" horiz-adv-x="672" 
d="M655 0h-149l-52 152h-240l-52 -152h-145l250 704h138zM410 280l-76 228l-77 -228h153zM523 877c-18.667 -86 -56.334 -129 -113.001 -129c-21.333 0 -50.333 8 -87 24c-24 11.333 -41 17 -51 17c-12.667 0 -22.334 -3.66699 -29.001 -11s-13.667 -20 -21 -38l-76 23
c20 86 57.667 129 113 129c24 0 52.667 -7.66699 86 -23c21.333 -11.333 39 -17 53 -17c12.667 0 22.334 3.83301 29.001 11.5s13.334 20.167 20.001 37.5z" />
    <glyph glyph-name="Adieresis" unicode="&#xc4;" horiz-adv-x="672" 
d="M655 0h-149l-52 152h-240l-52 -152h-145l250 704h138zM410 280l-76 228l-77 -228h153zM503 753h-134v125h134v-125zM303 753h-134v125h134v-125z" />
    <glyph glyph-name="Aring" unicode="&#xc5;" horiz-adv-x="672" 
d="M655 0l-148.998 0.000976562l-52 151h-241l-51 -151h-146l243 682c-26.667 23.333 -40 52.666 -40 87.999v3c0 31.333 11.667 58.5 35 81.5s50.666 34.5 81.999 34.5s58.666 -11.5 81.999 -34.5s35 -50.167 35 -81.5v-3c0 -34.667 -13.667 -64 -41 -88zM392.002 770.001
l0.000976562 2c0 16 -5.5 30 -16.5 42s-24.167 18 -39.5 18c-16 0 -29.5 -6 -40.5 -18s-16.5 -26 -16.5 -42v-2c0 -15.333 5.66699 -29 17 -41s24.666 -18 39.999 -18s28.5 5.83301 39.5 17.5s16.5 25.5 16.5 41.5zM410.003 279.001l-76 229l-77 -229h153z" />
    <glyph glyph-name="AE" unicode="&#xc6;" horiz-adv-x="898" 
d="M854 0h-437v151h-198l-68 -151h-145l319 700h524v-131h-289v-152h253v-130h-253v-157h294v-130zM417 279v289h-16l-124 -289h140z" />
    <glyph glyph-name="Ccedilla" unicode="&#xc7;" horiz-adv-x="617" 
d="M280 -1c-70.667 17.333 -127.665 56.832 -170.998 118.499s-65 137.5 -65 227.5v9c0 106 29.667 191.833 89 257.5s135.333 98.5 228 98.5c86 0 158.333 -26.667 217 -80l-68 -117c-48.667 41.333 -97.334 62 -146.001 62c-50 0 -90.833 -19.667 -122.5 -59
s-47.5 -92.666 -47.5 -159.999v-10c0 -68.667 15.667 -122.667 47 -162s72.666 -59 123.999 -59c50 0 99.667 21.333 149 64l69 -105c-58 -58 -125.667 -89 -203 -93l-63 -154l-119 48z" />
    <glyph glyph-name="Egrave" unicode="&#xc8;" horiz-adv-x="568" 
d="M524 0h-454v700h450v-130h-307v-153h270v-130h-270v-157h311v-130zM369 750h-102l-124 122l118 54z" />
    <glyph glyph-name="Eacute" unicode="&#xc9;" horiz-adv-x="568" 
d="M524 0h-454v700h450v-130h-307v-153h270v-130h-270v-157h311v-130zM444 872l-124 -122h-102l108 176z" />
    <glyph glyph-name="Ecircumflex" unicode="&#xca;" horiz-adv-x="568" 
d="M524 0h-454v700h450v-130h-307v-153h270v-130h-270v-157h311v-130zM465 750h-103l-71 79l-71 -79h-101l108 157h130z" />
    <glyph glyph-name="Edieresis" unicode="&#xcb;" horiz-adv-x="568" 
d="M524 0h-454v700h450v-130h-307v-153h270v-130h-270v-157h311v-130zM460 753h-134v125h134v-125zM260 753h-134v125h134v-125z" />
    <glyph glyph-name="Igrave" unicode="&#xcc;" horiz-adv-x="295" 
d="M219 0h-144v700h144v-700zM203 750h-102l-124 122l118 54z" />
    <glyph glyph-name="Iacute" unicode="&#xcd;" horiz-adv-x="295" 
d="M219 0h-144v700h144v-700zM315 872l-124 -122h-102l108 176z" />
    <glyph glyph-name="Icircumflex" unicode="&#xce;" horiz-adv-x="295" 
d="M219 0h-144v700h144v-700zM320 750h-103l-71 79l-71 -79h-101l108 157h130z" />
    <glyph glyph-name="Idieresis" unicode="&#xcf;" horiz-adv-x="295" 
d="M219 0h-144v700h144v-700zM314 753h-134v125h134v-125zM114 753h-134v125h134v-125z" />
    <glyph glyph-name="Eth" unicode="&#xd0;" horiz-adv-x="702" 
d="M657 346c0 -102.667 -30.5 -186 -91.5 -250s-141.5 -96 -241.5 -96h-225v285h-68v132h68v283h225c100 0 180.5 -32 241.5 -96s91.5 -147.333 91.5 -250v-8zM508 345v7c0 68 -16.667 121 -50 159s-77 57 -131 57h-86v-151h124v-132h-124v-155h86
c54 0 97.667 18.833 131 56.5s50 90.5 50 158.5z" />
    <glyph glyph-name="Ntilde" unicode="&#xd1;" horiz-adv-x="681" 
d="M612 0h-125l-276 423v-423h-141v700h133l266 -408v408h143v-700zM531 877c-18.667 -86 -56.334 -129 -113.001 -129c-21.333 0 -50.333 8 -87 24c-24 11.333 -41 17 -51 17c-12.667 0 -22.334 -3.66699 -29.001 -11s-13.667 -20 -21 -38l-76 23c20 86 57.667 129 113 129
c24 0 52.667 -7.66699 86 -23c21.333 -11.333 39 -17 53 -17c12.667 0 22.334 3.83301 29.001 11.5s13.334 20.167 20.001 37.5z" />
    <glyph glyph-name="Ograve" unicode="&#xd2;" horiz-adv-x="721" 
d="M676 345c0 -104 -29.667 -189.333 -89 -256s-135 -100 -227 -100c-92.667 0 -168.5 33 -227.5 99s-88.5 151 -88.5 255v12c0 104.667 29.667 190.167 89 256.5s135.333 99.5 228 99.5c92 0 167.5 -33 226.5 -99s88.5 -151 88.5 -255v-12zM527 343v12
c0 68 -15.5 122.167 -46.5 162.5s-71.167 60.5 -120.5 60.5c-50 0 -90.167 -19.833 -120.5 -59.5s-45.5 -93.5 -45.5 -161.5v-12c0 -68 15.5 -122.167 46.5 -162.5s71.167 -60.5 120.5 -60.5c50 0 90.167 19.833 120.5 59.5s45.5 93.5 45.5 161.5zM409 750h-102l-124 122
l118 54z" />
    <glyph glyph-name="Oacute" unicode="&#xd3;" horiz-adv-x="721" 
d="M676 345c0 -104 -29.667 -189.333 -89 -256s-135 -100 -227 -100c-92.667 0 -168.5 33 -227.5 99s-88.5 151 -88.5 255v12c0 104.667 29.667 190.167 89 256.5s135.333 99.5 228 99.5c92 0 167.5 -33 226.5 -99s88.5 -151 88.5 -255v-12zM527 343v12
c0 68 -15.5 122.167 -46.5 162.5s-71.167 60.5 -120.5 60.5c-50 0 -90.167 -19.833 -120.5 -59.5s-45.5 -93.5 -45.5 -161.5v-12c0 -68 15.5 -122.167 46.5 -162.5s71.167 -60.5 120.5 -60.5c50 0 90.167 19.833 120.5 59.5s45.5 93.5 45.5 161.5zM531 872l-124 -122h-102
l108 176z" />
    <glyph glyph-name="Ocircumflex" unicode="&#xd4;" horiz-adv-x="721" 
d="M676 345c0 -104 -29.667 -189.333 -89 -256s-135 -100 -227 -100c-92.667 0 -168.5 33 -227.5 99s-88.5 151 -88.5 255v12c0 104.667 29.667 190.167 89 256.5s135.333 99.5 228 99.5c92 0 167.5 -33 226.5 -99s88.5 -151 88.5 -255v-12zM527 343v12
c0 68 -15.5 122.167 -46.5 162.5s-71.167 60.5 -120.5 60.5c-50 0 -90.167 -19.833 -120.5 -59.5s-45.5 -93.5 -45.5 -161.5v-12c0 -68 15.5 -122.167 46.5 -162.5s71.167 -60.5 120.5 -60.5c50 0 90.167 19.833 120.5 59.5s45.5 93.5 45.5 161.5zM533 750h-103l-71 79
l-71 -79h-101l108 157h130z" />
    <glyph glyph-name="Otilde" unicode="&#xd5;" horiz-adv-x="721" 
d="M676 345c0 -104 -29.667 -189.333 -89 -256s-135 -100 -227 -100c-92.667 0 -168.5 33 -227.5 99s-88.5 151 -88.5 255v12c0 104.667 29.667 190.167 89 256.5s135.333 99.5 228 99.5c92 0 167.5 -33 226.5 -99s88.5 -151 88.5 -255v-12zM527 343v12
c0 68 -15.5 122.167 -46.5 162.5s-71.167 60.5 -120.5 60.5c-50 0 -90.167 -19.833 -120.5 -59.5s-45.5 -93.5 -45.5 -161.5v-12c0 -68 15.5 -122.167 46.5 -162.5s71.167 -60.5 120.5 -60.5c50 0 90.167 19.833 120.5 59.5s45.5 93.5 45.5 161.5zM548 877
c-18.667 -86 -56.334 -129 -113.001 -129c-21.333 0 -50.333 8 -87 24c-24 11.333 -41 17 -51 17c-12.667 0 -22.334 -3.66699 -29.001 -11s-13.667 -20 -21 -38l-76 23c20 86 57.667 129 113 129c24 0 52.667 -7.66699 86 -23c21.333 -11.333 39 -17 53 -17
c12.667 0 22.334 3.83301 29.001 11.5s13.334 20.167 20.001 37.5z" />
    <glyph glyph-name="Odieresis" unicode="&#xd6;" horiz-adv-x="721" 
d="M676 345c0 -104 -29.667 -189.333 -89 -256s-135 -100 -227 -100c-92.667 0 -168.5 33 -227.5 99s-88.5 151 -88.5 255v12c0 104.667 29.667 190.167 89 256.5s135.333 99.5 228 99.5c92 0 167.5 -33 226.5 -99s88.5 -151 88.5 -255v-12zM527 343v12
c0 68 -15.5 122.167 -46.5 162.5s-71.167 60.5 -120.5 60.5c-50 0 -90.167 -19.833 -120.5 -59.5s-45.5 -93.5 -45.5 -161.5v-12c0 -68 15.5 -122.167 46.5 -162.5s71.167 -60.5 120.5 -60.5c50 0 90.167 19.833 120.5 59.5s45.5 93.5 45.5 161.5zM527 753h-134v125h134
v-125zM327 753h-134v125h134v-125z" />
    <glyph glyph-name="multiply" unicode="&#xd7;" 
d="M0 0v700h500v-700h-500zM81 49h339l-170 255zM49 96l171 254l-171 254v-508zM450 96v508l-171 -254zM250 395l170 255h-339z" />
    <glyph glyph-name="Oslash" unicode="&#xd8;" horiz-adv-x="721" 
d="M676 355v-10c0 -104 -29.833 -189.333 -89.5 -256s-135.5 -100 -227.5 -100c-62 0 -116.333 14.667 -163 44l-31 -38h-123l79 105c-51.333 65.333 -77 146.333 -77 243v11c0 104 29.833 189.5 89.5 256.5s135.5 100.5 227.5 100.5c60.667 0 115.667 -16 165 -48l32 42
h124l-82 -110c50.667 -63.333 76 -143.333 76 -240zM443 544c-23.333 24 -51.333 36 -84 36c-50 0 -90.5 -20.5 -121.5 -61.5s-46.5 -95.5 -46.5 -163.5v-10c0 -39.333 8.33301 -75 25 -107zM529 343v11c0 36.667 -8.33301 70 -25 100l-227 -304
c23.333 -21.333 51.333 -32 84 -32c50 0 90.5 20.5 121.5 61.5s46.5 95.5 46.5 163.5z" />
    <glyph glyph-name="Ugrave" unicode="&#xd9;" horiz-adv-x="654" 
d="M592 274c0 -93.333 -23.667 -163.998 -71 -211.998s-112.333 -72 -195 -72s-147.5 23.833 -194.5 71.5s-70.5 117.5 -70.5 209.5v429h144v-430c0 -48.667 10.667 -85.334 32 -110.001s51.333 -37 90 -37s68.667 12.167 90 36.5s32 60.166 32 107.499v433h143v-426z
M385 747.002h-102l-124 122l118 54z" />
    <glyph glyph-name="Uacute" unicode="&#xda;" horiz-adv-x="654" 
d="M592 274c0 -93.333 -23.667 -163.998 -71 -211.998s-112.333 -72 -195 -72s-147.5 23.833 -194.5 71.5s-70.5 117.5 -70.5 209.5v429h144v-430c0 -48.667 10.667 -85.334 32 -110.001s51.333 -37 90 -37s68.667 12.167 90 36.5s32 60.166 32 107.499v433h143v-426z
M494 869.002l-124 -122h-102l108 176z" />
    <glyph glyph-name="Ucircumflex" unicode="&#xdb;" horiz-adv-x="654" 
d="M592 274c0 -93.333 -23.667 -163.998 -71 -211.998s-112.333 -72 -195 -72s-147.5 23.833 -194.5 71.5s-70.5 117.5 -70.5 209.5v429h144v-430c0 -48.667 10.667 -85.334 32 -110.001s51.333 -37 90 -37s68.667 12.167 90 36.5s32 60.166 32 107.499v433h143v-426z
M500 750.002h-103l-71 79l-71 -79h-101l108 157h130z" />
    <glyph glyph-name="Udieresis" unicode="&#xdc;" horiz-adv-x="654" 
d="M592 274c0 -93.333 -23.667 -163.998 -71 -211.998s-112.333 -72 -195 -72s-147.5 23.833 -194.5 71.5s-70.5 117.5 -70.5 209.5v429h144v-430c0 -48.667 10.667 -85.334 32 -110.001s51.333 -37 90 -37s68.667 12.167 90 36.5s32 60.166 32 107.499v433h143v-426z
M494 753.002h-134v125h134v-125zM294 753.002h-134v125h134v-125z" />
    <glyph glyph-name="Yacute" unicode="&#xdd;" horiz-adv-x="616" 
d="M607 700l-227 -422v-278h-145v276l-227 424h164l137 -275l139 275h159zM478 869l-124 -122h-102l108 176z" />
    <glyph glyph-name="Thorn" unicode="&#xde;" horiz-adv-x="586" 
d="M557 358c0 -77.333 -24.332 -137.333 -72.999 -180s-111.334 -64.667 -188.001 -66h-82v-112h-145v700h145v-101h92c75.333 0 136 -21.333 182 -64s69 -101.667 69 -177zM411.001 355c0 36.667 -10 64.667 -30 84s-47.667 29 -83 29h-84v-226h85
c34 0 61.167 10.333 81.5 31s30.5 48 30.5 82z" />
    <glyph glyph-name="germandbls" unicode="&#xdf;" horiz-adv-x="554" 
d="M518 200c0 -64.667 -22.168 -114.834 -66.501 -150.501s-105.166 -52.834 -182.499 -51.501v109c35.333 2 62.333 11.5 81 28.5s28 40.167 28 69.5c0 27.333 -9.83301 49.833 -29.5 67.5s-46.167 29.167 -79.5 34.5v96c51.333 33.333 77 74 77 122v2
c0 24.667 -6.33301 44.167 -19 58.5s-30 21.5 -52 21.5c-23.333 0 -42 -9.16699 -56 -27.5s-21 -42.833 -21 -73.5v-506h-141v501c0 70 20 125.333 60 166s94.667 61 164 61c63.333 0 113 -17.667 149 -53s54 -79.666 54 -132.999v-3
c0 -69.333 -28.667 -123.666 -86 -162.999c80 -35.333 120 -93.333 120 -174v-2z" />
    <glyph glyph-name="agrave" unicode="&#xe0;" horiz-adv-x="519" 
d="M467 0l-139.001 -0.000976562v57c-34.667 -44 -81 -66 -139 -66c-46 0 -84.167 14.333 -114.5 43s-45.5 68 -45.5 118v7c0 56.667 16.833 99.334 50.5 128.001s79.167 43 136.5 43c40 0 77.667 -7 113 -21v15c0 62.667 -34.333 94 -103 94
c-39.333 0 -82.666 -9.33301 -129.999 -28l-27 115c56 24.667 116 37 180 37c72.667 0 127.167 -18.667 163.5 -56s54.5 -91 54.5 -161v-325zM329.999 174.999l-0.000976562 45.998c-22.667 11.333 -49 17 -79 17c-26.667 0 -47.5 -6.16699 -62.5 -18.5
s-22.5 -30.166 -22.5 -53.499v-7c0 -21.333 6.33301 -37.666 19 -48.999s29.334 -17 50.001 -17c28 0 50.833 7.5 68.5 22.5s26.5 34.833 26.5 59.5zM319.998 592.997h-102l-124 122l118 54z" />
    <glyph glyph-name="aacute" unicode="&#xe1;" horiz-adv-x="519" 
d="M467 0l-139.001 -0.000976562v57c-34.667 -44 -81 -66 -139 -66c-46 0 -84.167 14.333 -114.5 43s-45.5 68 -45.5 118v7c0 56.667 16.833 99.334 50.5 128.001s79.167 43 136.5 43c40 0 77.667 -7 113 -21v15c0 62.667 -34.333 94 -103 94
c-39.333 0 -82.666 -9.33301 -129.999 -28l-27 115c56 24.667 116 37 180 37c72.667 0 127.167 -18.667 163.5 -56s54.5 -91 54.5 -161v-325zM329.999 174.999l-0.000976562 45.998c-22.667 11.333 -49 17 -79 17c-26.667 0 -47.5 -6.16699 -62.5 -18.5
s-22.5 -30.166 -22.5 -53.499v-7c0 -21.333 6.33301 -37.666 19 -48.999s29.334 -17 50.001 -17c28 0 50.833 7.5 68.5 22.5s26.5 34.833 26.5 59.5zM416.998 714.997l-124 -122h-102l108 176z" />
    <glyph glyph-name="acircumflex" unicode="&#xe2;" horiz-adv-x="519" 
d="M467 0l-139.001 -0.000976562v57c-34.667 -44 -81 -66 -139 -66c-46 0 -84.167 14.333 -114.5 43s-45.5 68 -45.5 118v7c0 56.667 16.833 99.334 50.5 128.001s79.167 43 136.5 43c40 0 77.667 -7 113 -21v15c0 62.667 -34.333 94 -103 94
c-39.333 0 -82.666 -9.33301 -129.999 -28l-27 115c56 24.667 116 37 180 37c72.667 0 127.167 -18.667 163.5 -56s54.5 -91 54.5 -161v-325zM329.999 174.999l-0.000976562 45.998c-22.667 11.333 -49 17 -79 17c-26.667 0 -47.5 -6.16699 -62.5 -18.5
s-22.5 -30.166 -22.5 -53.499v-7c0 -21.333 6.33301 -37.666 19 -48.999s29.334 -17 50.001 -17c28 0 50.833 7.5 68.5 22.5s26.5 34.833 26.5 59.5zM428.998 592.997h-103l-71 79l-71 -79h-101l108 157h130z" />
    <glyph glyph-name="atilde" unicode="&#xe3;" horiz-adv-x="519" 
d="M467 0l-139.001 -0.000976562v57c-34.667 -44 -81 -66 -139 -66c-46 0 -84.167 14.333 -114.5 43s-45.5 68 -45.5 118v7c0 56.667 16.833 99.334 50.5 128.001s79.167 43 136.5 43c40 0 77.667 -7 113 -21v15c0 62.667 -34.333 94 -103 94
c-39.333 0 -82.666 -9.33301 -129.999 -28l-27 115c56 24.667 116 37 180 37c72.667 0 127.167 -18.667 163.5 -56s54.5 -91 54.5 -161v-325zM329.999 174.999l-0.000976562 45.998c-22.667 11.333 -49 17 -79 17c-26.667 0 -47.5 -6.16699 -62.5 -18.5
s-22.5 -30.166 -22.5 -53.499v-7c0 -21.333 6.33301 -37.666 19 -48.999s29.334 -17 50.001 -17c28 0 50.833 7.5 68.5 22.5s26.5 34.833 26.5 59.5zM446.998 719.997c-18.667 -86 -56.334 -129 -113.001 -129c-21.333 0 -50.333 8 -87 24c-24 11.333 -41 17 -51 17
c-12.667 0 -22.334 -3.66699 -29.001 -11s-13.667 -20 -21 -38l-76 23c20 86 57.667 129 113 129c24 0 52.667 -7.66699 86 -23c21.333 -11.333 39 -17 53 -17c12.667 0 22.334 3.83301 29.001 11.5s13.334 20.167 20.001 37.5z" />
    <glyph glyph-name="adieresis" unicode="&#xe4;" horiz-adv-x="519" 
d="M467 0l-139.001 -0.000976562v57c-34.667 -44 -81 -66 -139 -66c-46 0 -84.167 14.333 -114.5 43s-45.5 68 -45.5 118v7c0 56.667 16.833 99.334 50.5 128.001s79.167 43 136.5 43c40 0 77.667 -7 113 -21v15c0 62.667 -34.333 94 -103 94
c-39.333 0 -82.666 -9.33301 -129.999 -28l-27 115c56 24.667 116 37 180 37c72.667 0 127.167 -18.667 163.5 -56s54.5 -91 54.5 -161v-325zM329.999 174.999l-0.000976562 45.998c-22.667 11.333 -49 17 -79 17c-26.667 0 -47.5 -6.16699 -62.5 -18.5
s-22.5 -30.166 -22.5 -53.499v-7c0 -21.333 6.33301 -37.666 19 -48.999s29.334 -17 50.001 -17c28 0 50.833 7.5 68.5 22.5s26.5 34.833 26.5 59.5zM422.998 595.997h-134v125h134v-125zM222.998 595.997h-134v125h134v-125z" />
    <glyph glyph-name="aring" unicode="&#xe5;" horiz-adv-x="519" 
d="M467 0l-139.001 -0.000976562v57c-34.667 -44 -81 -66 -139 -66c-46 0 -84.167 14.333 -114.5 43s-45.5 68 -45.5 118v7c0 56.667 16.833 99.334 50.5 128.001s79.167 43 136.5 43c40 0 77.667 -7 113 -21v15c0 62.667 -34.333 94 -103 94
c-39.333 0 -82.666 -9.33301 -129.999 -28l-27 115c56 24.667 116 37 180 37c72.667 0 127.167 -18.667 163.5 -56s54.5 -91 54.5 -161v-325zM329.999 174.999l-0.000976562 45.998c-22.667 11.333 -49 17 -79 17c-26.667 0 -47.5 -6.16699 -62.5 -18.5
s-22.5 -30.166 -22.5 -53.499v-7c0 -21.333 6.33301 -37.666 19 -48.999s29.334 -17 50.001 -17c28 0 50.833 7.5 68.5 22.5s26.5 34.833 26.5 59.5zM369.998 704.997v-3c0 -30.667 -11.5 -57.5 -34.5 -80.5s-50.167 -34.5 -81.5 -34.5s-58.666 11.5 -81.999 34.5
s-35 49.833 -35 80.5v3c0 31.333 11.667 58.5 35 81.5s50.666 34.5 81.999 34.5s58.5 -11.5 81.5 -34.5s34.5 -50.167 34.5 -81.5zM309.998 702.997v1.99902c0 16 -5.5 30 -16.5 42s-24.167 18 -39.5 18c-16 0 -29.667 -6 -41 -18s-17 -26 -17 -42v-2
c0 -15.333 5.83301 -29.166 17.5 -41.499s25.167 -18.5 40.5 -18.5s28.5 6 39.5 18s16.5 26 16.5 42z" />
    <glyph glyph-name="ae" unicode="&#xe6;" horiz-adv-x="825" 
d="M206 -9c-54 0 -97.002 14.5 -129.002 43.5s-48 69.167 -48 120.5v5c0 56.667 16.833 99.167 50.5 127.5s79.167 42.5 136.5 42.5c40 0 77.667 -7 113 -21v15c0 62.667 -34.333 94 -103 94c-39.333 0 -82.666 -9.33301 -129.999 -28l-27 115c56 24.667 116 37 180 37
c74.667 0 128.667 -21.667 162 -65c39.333 45.333 90 68 152 68c72.667 0 128.5 -26.5 167.5 -79.5s58.5 -121.167 58.5 -204.5l-1 -47h-321c12.667 -71.333 51.334 -107 116.001 -107c40.667 0 80.667 16.667 120 50l63 -86c-49.333 -54.667 -112.333 -82 -189 -82
c-78 0 -139.667 29 -185 87c-54.667 -56.667 -116.667 -85 -186 -85zM236.998 95c41.333 0 78.999 19 112.999 57c-7.33301 20 -12.666 43 -15.999 69c-26 11.333 -53.667 17 -83 17c-56.667 0 -85 -24 -85 -72v-4c0 -22 6.33301 -38.667 19 -50s30 -17 52 -17zM464.997 309
l187.001 0.00195312c-3.33301 37.333 -12.833 66.666 -28.5 87.999s-36.834 32 -63.501 32c-26 0 -47.167 -10.333 -63.5 -31s-26.833 -50.334 -31.5 -89.001z" />
    <glyph glyph-name="ccedilla" unicode="&#xe7;" horiz-adv-x="485" 
d="M208 0c-52 15.333 -93.667 46.5029 -125 93.5029s-47 102.833 -47 167.5v11c0 79.333 23.333 144.666 70 195.999s105.667 77 177 77s128.666 -22.333 171.999 -67l-64 -106c-32.667 31.333 -67.334 47 -104.001 47c-32 0 -58.333 -13.333 -79 -40s-31 -61.667 -31 -105
v-12c0 -44.667 10.5 -80.334 31.5 -107.001s48.833 -40 83.5 -40s69.334 15.667 104.001 47l62 -98c-43.333 -44.667 -93.666 -69.334 -150.999 -74.001l-63 -153l-119 48z" />
    <glyph glyph-name="egrave" unicode="&#xe8;" horiz-adv-x="534" 
d="M498 261c0 -18 -0.666016 -33.667 -1.99902 -47h-320c12.667 -71.333 51.334 -107 116.001 -107c42 0 81.667 16.667 119 50l64 -86c-49.333 -54.667 -112 -82 -188 -82c-72.667 0 -132.834 25 -180.501 75s-71.5 115.667 -71.5 197v10
c0 79.333 22.167 144.833 66.5 196.5s100.5 77.5 168.5 77.5c73.333 0 129.666 -26.5 168.999 -79.5s59 -121.167 59 -204.5zM361.001 309c-3.33301 37.333 -12.833 66.668 -28.5 88.001s-36.5 32 -62.5 32s-47.167 -10.333 -63.5 -31s-26.833 -50.334 -31.5 -89.001h186z
M321.001 593.002h-102l-124 122l118 54z" />
    <glyph glyph-name="eacute" unicode="&#xe9;" horiz-adv-x="534" 
d="M498 261c0 -18 -0.666016 -33.667 -1.99902 -47h-320c12.667 -71.333 51.334 -107 116.001 -107c42 0 81.667 16.667 119 50l64 -86c-49.333 -54.667 -112 -82 -188 -82c-72.667 0 -132.834 25 -180.501 75s-71.5 115.667 -71.5 197v10
c0 79.333 22.167 144.833 66.5 196.5s100.5 77.5 168.5 77.5c73.333 0 129.666 -26.5 168.999 -79.5s59 -121.167 59 -204.5zM361.001 309c-3.33301 37.333 -12.833 66.668 -28.5 88.001s-36.5 32 -62.5 32s-47.167 -10.333 -63.5 -31s-26.833 -50.334 -31.5 -89.001h186z
M438.001 715.002l-124 -122h-102l108 176z" />
    <glyph glyph-name="ecircumflex" unicode="&#xea;" horiz-adv-x="534" 
d="M498 261c0 -18 -0.666016 -33.667 -1.99902 -47h-320c12.667 -71.333 51.334 -107 116.001 -107c42 0 81.667 16.667 119 50l64 -86c-49.333 -54.667 -112 -82 -188 -82c-72.667 0 -132.834 25 -180.501 75s-71.5 115.667 -71.5 197v10
c0 79.333 22.167 144.833 66.5 196.5s100.5 77.5 168.5 77.5c73.333 0 129.666 -26.5 168.999 -79.5s59 -121.167 59 -204.5zM361.001 309c-3.33301 37.333 -12.833 66.668 -28.5 88.001s-36.5 32 -62.5 32s-47.167 -10.333 -63.5 -31s-26.833 -50.334 -31.5 -89.001h186z
M442.001 593.002h-103l-71 79l-71 -79h-101l108 157h130z" />
    <glyph glyph-name="edieresis" unicode="&#xeb;" horiz-adv-x="534" 
d="M498 261c0 -18 -0.666016 -33.667 -1.99902 -47h-320c12.667 -71.333 51.334 -107 116.001 -107c42 0 81.667 16.667 119 50l64 -86c-49.333 -54.667 -112 -82 -188 -82c-72.667 0 -132.834 25 -180.501 75s-71.5 115.667 -71.5 197v10
c0 79.333 22.167 144.833 66.5 196.5s100.5 77.5 168.5 77.5c73.333 0 129.666 -26.5 168.999 -79.5s59 -121.167 59 -204.5zM361.001 309c-3.33301 37.333 -12.833 66.668 -28.5 88.001s-36.5 32 -62.5 32s-47.167 -10.333 -63.5 -31s-26.833 -50.334 -31.5 -89.001h186z
M436.001 596.002h-134v125h134v-125zM236.001 596.002h-134v125h134v-125z" />
    <glyph glyph-name="igrave" unicode="&#xec;" horiz-adv-x="267" 
d="M204 0h-142v536h142v-536zM190 593h-102l-124 122l118 54z" />
    <glyph glyph-name="iacute" unicode="&#xed;" horiz-adv-x="267" 
d="M204 0h-142v536h142v-536zM300 715l-124 -122h-102l108 176z" />
    <glyph glyph-name="icircumflex" unicode="&#xee;" horiz-adv-x="267" 
d="M204 0h-142v536h142v-536zM307 593h-103l-71 79l-71 -79h-101l108 157h130z" />
    <glyph glyph-name="idieresis" unicode="&#xef;" horiz-adv-x="267" 
d="M204 0h-142v536h142v-536zM301 596h-134v125h134v-125zM101 596h-134v125h134v-125z" />
    <glyph glyph-name="eth" unicode="&#xf0;" horiz-adv-x="565" 
d="M527 251c0 -77.333 -22.833 -140.332 -68.5 -188.999s-106.167 -73 -181.5 -73c-70 0 -127.667 23.5 -173 70.5s-68 107.5 -68 181.5v5c0 70 18.167 126 54.5 168s82.833 63 139.5 63c40 0 77.333 -12.333 112 -37l-76 116l-101 -45l-52 75l105 47l-57 89h153l21 -37
l88 39l52 -76l-92 -40l65 -101c52.667 -84.667 79 -168.334 79 -251.001v-5zM388 239.001v4c0 40 -9.83301 71.667 -29.5 95s-45.5 35 -77.5 35s-57.667 -11.5 -77 -34.5s-29 -54.833 -29 -95.5v-4c0 -40 9.83301 -71.667 29.5 -95s45.5 -35 77.5 -35
c32.667 0 58.5 11.5 77.5 34.5s28.5 54.833 28.5 95.5z" />
    <glyph glyph-name="ntilde" unicode="&#xf1;" horiz-adv-x="550" 
d="M496 0h-142.001v323c0 30.667 -6.66699 54.167 -20 70.5s-32 24.5 -56 24.5c-24.667 0 -44 -8.16699 -58 -24.5s-21 -39.833 -21 -70.5v-323h-142v536h142v-72c39.333 54.667 85.333 82 138 82c50.667 0 89.834 -16.167 117.501 -48.5s41.5 -76.5 41.5 -132.5v-365z
M467.999 720c-18.667 -86 -56.334 -129 -113.001 -129c-21.333 0 -50.333 8 -87 24c-24 11.333 -41 17 -51 17c-12.667 0 -22.334 -3.66699 -29.001 -11s-13.667 -20 -21 -38l-76 23c20 86 57.667 129 113 129c24 0 52.667 -7.66699 86 -23c21.333 -11.333 39 -17 53 -17
c12.667 0 22.334 3.83301 29.001 11.5s13.334 20.167 20.001 37.5z" />
    <glyph glyph-name="ograve" unicode="&#xf2;" horiz-adv-x="578" 
d="M542 262c0 -79.333 -24 -144.666 -72 -195.999s-108.667 -77 -182 -77c-72.667 0 -132.834 25.5 -180.501 76.5s-71.5 116.167 -71.5 195.5v11c0 79.333 24 144.666 72 195.999s108.667 77 182 77c72.667 0 132.834 -25.5 180.501 -76.5s71.5 -116.167 71.5 -195.5v-11z
M401 260v12c0 44 -10.333 80 -31 108s-48 42 -82 42c-34.667 0 -62 -13.667 -82 -41s-30 -63 -30 -107v-12c0 -44 10.5 -80 31.5 -108s48.5 -42 82.5 -42s61 13.667 81 41s30 63 30 107zM342 593h-102l-124 122l118 54z" />
    <glyph glyph-name="oacute" unicode="&#xf3;" horiz-adv-x="578" 
d="M542 262c0 -79.333 -24 -144.666 -72 -195.999s-108.667 -77 -182 -77c-72.667 0 -132.834 25.5 -180.501 76.5s-71.5 116.167 -71.5 195.5v11c0 79.333 24 144.666 72 195.999s108.667 77 182 77c72.667 0 132.834 -25.5 180.501 -76.5s71.5 -116.167 71.5 -195.5v-11z
M401 260v12c0 44 -10.333 80 -31 108s-48 42 -82 42c-34.667 0 -62 -13.667 -82 -41s-30 -63 -30 -107v-12c0 -44 10.5 -80 31.5 -108s48.5 -42 82.5 -42s61 13.667 81 41s30 63 30 107zM461 715l-124 -122h-102l108 176z" />
    <glyph glyph-name="ocircumflex" unicode="&#xf4;" horiz-adv-x="578" 
d="M542 262c0 -79.333 -24 -144.666 -72 -195.999s-108.667 -77 -182 -77c-72.667 0 -132.834 25.5 -180.501 76.5s-71.5 116.167 -71.5 195.5v11c0 79.333 24 144.666 72 195.999s108.667 77 182 77c72.667 0 132.834 -25.5 180.501 -76.5s71.5 -116.167 71.5 -195.5v-11z
M401 260v12c0 44 -10.333 80 -31 108s-48 42 -82 42c-34.667 0 -62 -13.667 -82 -41s-30 -63 -30 -107v-12c0 -44 10.5 -80 31.5 -108s48.5 -42 82.5 -42s61 13.667 81 41s30 63 30 107zM462 593h-103l-71 79l-71 -79h-101l108 157h130z" />
    <glyph glyph-name="otilde" unicode="&#xf5;" horiz-adv-x="578" 
d="M542 262c0 -79.333 -24 -144.666 -72 -195.999s-108.667 -77 -182 -77c-72.667 0 -132.834 25.5 -180.501 76.5s-71.5 116.167 -71.5 195.5v11c0 79.333 24 144.666 72 195.999s108.667 77 182 77c72.667 0 132.834 -25.5 180.501 -76.5s71.5 -116.167 71.5 -195.5v-11z
M401 260v12c0 44 -10.333 80 -31 108s-48 42 -82 42c-34.667 0 -62 -13.667 -82 -41s-30 -63 -30 -107v-12c0 -44 10.5 -80 31.5 -108s48.5 -42 82.5 -42s61 13.667 81 41s30 63 30 107zM477 720c-18.667 -86 -56.334 -129 -113.001 -129c-21.333 0 -50.333 8 -87 24
c-24 11.333 -41 17 -51 17c-12.667 0 -22.334 -3.66699 -29.001 -11s-13.667 -20 -21 -38l-76 23c20 86 57.667 129 113 129c24 0 52.667 -7.66699 86 -23c21.333 -11.333 39 -17 53 -17c12.667 0 22.334 3.83301 29.001 11.5s13.334 20.167 20.001 37.5z" />
    <glyph glyph-name="odieresis" unicode="&#xf6;" horiz-adv-x="578" 
d="M542 262c0 -79.333 -24 -144.666 -72 -195.999s-108.667 -77 -182 -77c-72.667 0 -132.834 25.5 -180.501 76.5s-71.5 116.167 -71.5 195.5v11c0 79.333 24 144.666 72 195.999s108.667 77 182 77c72.667 0 132.834 -25.5 180.501 -76.5s71.5 -116.167 71.5 -195.5v-11z
M401 260v12c0 44 -10.333 80 -31 108s-48 42 -82 42c-34.667 0 -62 -13.667 -82 -41s-30 -63 -30 -107v-12c0 -44 10.5 -80 31.5 -108s48.5 -42 82.5 -42s61 13.667 81 41s30 63 30 107zM456 596h-134v125h134v-125zM256 596h-134v125h134v-125z" />
    <glyph glyph-name="divide" unicode="&#xf7;" horiz-adv-x="555" 
d="M54 288v133h447v-133h-447zM200 500v149h149v-149h-149zM200 60v149h149v-149h-149z" />
    <glyph glyph-name="oslash" unicode="&#xf8;" horiz-adv-x="578" 
d="M541 272v-10.001c0 -79.333 -24 -144.666 -72 -195.999s-108.333 -77 -181 -77c-47.333 0 -90 11.333 -128 34l-24 -28h-114l69 89c-36.667 48 -55 107 -55 177v9c0 79.333 24 145 72 197s108.333 78 181 78c46 0 88.333 -11.333 127 -34l25 31h113l-70 -91
c38 -49.333 57 -109 57 -179zM339 405.999c-14.667 12.667 -31.666 19.001 -50.999 19.001c-34.667 0 -62.834 -14.333 -84.501 -43s-32.5 -65.334 -32.5 -110.001v-10c0 -19.333 4 -38 12 -56zM406.001 260l-0.000976562 11.001c0 19.333 -4 38.666 -12 57.999l-156 -202
c13.333 -12.667 30.333 -19 51 -19c34.667 0 62.834 14.167 84.501 42.5s32.5 64.833 32.5 109.5z" />
    <glyph glyph-name="ugrave" unicode="&#xf9;" horiz-adv-x="550" 
d="M492 0h-142v72c-39.333 -54.667 -85.333 -82 -138 -82c-50 0 -88.833 16.167 -116.5 48.5s-41.5 76.5 -41.5 132.5v365h142v-323c0 -30.667 6.5 -54.167 19.5 -70.5s31.5 -24.5 55.5 -24.5c24.667 0 44 8.16699 58 24.5s21 39.833 21 70.5v323h142v-536zM336 593h-102
l-124 122l118 54z" />
    <glyph glyph-name="uacute" unicode="&#xfa;" horiz-adv-x="550" 
d="M492 0h-142v72c-39.333 -54.667 -85.333 -82 -138 -82c-50 0 -88.833 16.167 -116.5 48.5s-41.5 76.5 -41.5 132.5v365h142v-323c0 -30.667 6.5 -54.167 19.5 -70.5s31.5 -24.5 55.5 -24.5c24.667 0 44 8.16699 58 24.5s21 39.833 21 70.5v323h142v-536zM437 715
l-124 -122h-102l108 176z" />
    <glyph glyph-name="ucircumflex" unicode="&#xfb;" horiz-adv-x="550" 
d="M492 0h-142v72c-39.333 -54.667 -85.333 -82 -138 -82c-50 0 -88.833 16.167 -116.5 48.5s-41.5 76.5 -41.5 132.5v365h142v-323c0 -30.667 6.5 -54.167 19.5 -70.5s31.5 -24.5 55.5 -24.5c24.667 0 44 8.16699 58 24.5s21 39.833 21 70.5v323h142v-536zM447 593h-103
l-71 79l-71 -79h-101l108 157h130z" />
    <glyph glyph-name="udieresis" unicode="&#xfc;" horiz-adv-x="550" 
d="M492 0h-142v72c-39.333 -54.667 -85.333 -82 -138 -82c-50 0 -88.833 16.167 -116.5 48.5s-41.5 76.5 -41.5 132.5v365h142v-323c0 -30.667 6.5 -54.167 19.5 -70.5s31.5 -24.5 55.5 -24.5c24.667 0 44 8.16699 58 24.5s21 39.833 21 70.5v323h142v-536zM441 596h-134
v125h134v-125zM241 596h-134v125h134v-125z" />
    <glyph glyph-name="yacute" unicode="&#xfd;" horiz-adv-x="529" 
d="M512 536l-180 -541c-18 -53.333 -39.333 -91.5 -64 -114.5s-58.667 -34.5 -102 -34.5c-44.667 0 -85.334 10.333 -122.001 31l42 106c22 -12.667 42.667 -19 62 -19c22.667 0 39.334 11.667 50.001 35l-181 537h148l101 -358l100 358h146zM423 715l-124 -122h-102
l108 176z" />
    <glyph glyph-name="thorn" unicode="&#xfe;" horiz-adv-x="587" 
d="M549 260c0 -86.667 -19.832 -153.333 -59.499 -200s-88.167 -70 -145.5 -70c-56.667 0 -105 26 -145 78v-219h-142v873h142v-260c39.333 56 87.666 84 144.999 84s105.833 -23.5 145.5 -70.5s59.5 -113.833 59.5 -200.5v-15zM407.001 262.001v11
c0 44.667 -10 80.5 -30 107.5s-45 40.5 -75 40.5s-55 -13.5 -75 -40.5s-30 -62.833 -30 -107.5v-11c0 -44.667 10 -80.5 30 -107.5s45 -40.5 75 -40.5s55 13.5 75 40.5s30 62.833 30 107.5z" />
    <glyph glyph-name="ydieresis" unicode="&#xff;" horiz-adv-x="529" 
d="M512 536l-180 -541c-18 -53.333 -39.333 -91.5 -64 -114.5s-58.667 -34.5 -102 -34.5c-44.667 0 -85.334 10.333 -122.001 31l42 106c22 -12.667 42.667 -19 62 -19c22.667 0 39.334 11.667 50.001 35l-181 537h148l101 -358l100 358h146zM431 596h-134v125h134v-125z
M231 596h-134v125h134v-125z" />
    <glyph glyph-name="dotlessi" unicode="&#x131;" horiz-adv-x="267" 
d="M204 0h-142v536h142v-536z" />
    <glyph glyph-name="Lslash" unicode="&#x141;" horiz-adv-x="552" 
d="M525 0h-426v267l-66 -20v134l66 20v299h142v-255l164 49v-134l-164 -49v-179h284v-132z" />
    <glyph glyph-name="lslash" unicode="&#x142;" horiz-adv-x="332" 
d="M236 326v-326h-141v278l-71 -25v134l71 25v310h141v-261l72 24v-134z" />
    <glyph glyph-name="OE" unicode="&#x152;" horiz-adv-x="919" 
d="M875 0l-497 -0.00195312c-100 0 -180.667 31.833 -242 95.5s-92 146.834 -92 249.501v7c0 102.667 30.833 186.334 92.5 251.001s142.167 97 241.5 97h492v-131h-289v-152h253v-130h-253v-157h294v-130zM437 129.998v438.001h-63c-54 0 -97.5 -18.667 -130.5 -56
s-49.5 -90 -49.5 -158v-8c0 -68.667 16.5 -121.834 49.5 -159.501s76.5 -56.5 130.5 -56.5h63z" />
    <glyph glyph-name="oe" unicode="&#x153;" horiz-adv-x="896" 
d="M282 -11c-69.333 0 -127.669 25.667 -175.002 77s-71 116.333 -71 195v10c0 79.333 24 144.833 72 196.5s107.333 77.5 178 77.5c74.667 0 134.334 -28.667 179.001 -86c41.333 57.333 97.666 86 168.999 86c72.667 0 128.5 -26.5 167.5 -79.5s58.5 -121.167 58.5 -204.5
l-1 -47h-320c12.667 -71.333 51.334 -107 116.001 -107c41.333 0 81 16.667 119 50l63 -86c-49.333 -54.667 -112.333 -82 -189 -82c-79.333 0 -140.666 29.333 -183.999 88c-45.333 -58.667 -106 -88 -182 -88zM285.997 112c33.333 0 59.667 13.666 79 40.999
s29 63.333 29 108v11c0 44.667 -10 80.834 -30 108.501s-46.333 41.5 -79 41.5c-33.333 0 -59.833 -13.667 -79.5 -41s-29.5 -63.333 -29.5 -108v-11c0 -44 10.167 -80 30.5 -108s46.833 -42 79.5 -42zM536.998 308.999l186 0.000976562
c-3.33301 37.333 -12.833 66.666 -28.5 87.999s-36.5 32 -62.5 32c-54 0 -85.667 -40 -95 -120z" />
    <glyph glyph-name="Scaron" unicode="&#x160;" horiz-adv-x="545" 
d="M508 198c0 -64 -21.334 -114.328 -64.001 -150.995s-98.334 -55 -167.001 -55c-94 0 -176 29 -246 87l64 114c61.333 -47.333 121 -71 179 -71c28 0 50 5.66699 66 17s24 27.666 24 48.999c0 19.333 -7.66699 35.666 -23 48.999s-47 30.333 -95 51
c-28.667 12 -51.667 22.333 -69 31s-35.166 19.5 -53.499 32.5s-32.333 26.167 -42 39.5s-17.667 29.666 -24 48.999s-9.5 41.333 -9.5 66c0 60.667 20.833 109.5 62.5 146.5s95.167 55.5 160.5 55.5c82 0 153.333 -22.667 214 -68l-56 -119c-58 38 -110 57 -156 57
c-25.333 0 -45.166 -5.66699 -59.499 -17s-21.5 -26.333 -21.5 -45c0 -20.667 7.5 -36.667 22.5 -48s49.167 -29 102.5 -53c68.667 -30.667 117.667 -61.334 147 -92.001s44 -72.334 44 -125.001zM444.999 907.005l-108 -157h-130l-108 157h103l70 -78l71 78h102z" />
    <glyph glyph-name="scaron" unicode="&#x161;" horiz-adv-x="437" 
d="M405 156c0 -53.333 -17.498 -94.334 -52.498 -123.001s-80.167 -43 -135.5 -43c-71.333 0 -136 21.333 -194 64l46 105c52.667 -36.667 102 -55 148 -55c38.667 0 58 13.333 58 40v2c0 4 -0.666992 7.83301 -2 11.5s-3.66602 7.16699 -6.99902 10.5
s-6.83301 6.33301 -10.5 9s-8.66699 5.66699 -15 9l-17 9c-5 2.66699 -12.167 6 -21.5 10s-17 7.66699 -23 11c-43.333 19.333 -77.333 41 -102 65s-37 57 -37 99v2c0 50 17.167 89.5 51.5 118.5s78.166 43.5 131.499 43.5c60 0 115.667 -16 167 -48l-41 -108
c-48.667 28 -90.667 42 -126 42c-16.667 0 -29.5 -3.33301 -38.5 -10s-13.5 -15.334 -13.5 -26.001v-2c0 -4 0.666992 -7.66699 2 -11s3.66602 -6.66602 6.99902 -9.99902s6.66602 -6.33301 9.99902 -9s8.33301 -5.83398 15 -9.50098l17.5 -9.5l21 -11l22.5 -12
c22.667 -11.333 40.5 -21 53.5 -29s27 -18.667 42 -32s26 -28.166 33 -44.499s10.5 -35.166 10.5 -56.499v-2zM394.002 749.999l-108 -157h-130l-108 157h103l70 -78l71 78h102z" />
    <glyph glyph-name="Ydieresis" unicode="&#x178;" horiz-adv-x="616" 
d="M607 700l-227 -422v-278h-145v276l-227 424h164l137 -275l139 275h159zM475 753h-134v125h134v-125zM275 753h-134v125h134v-125z" />
    <glyph glyph-name="Zcaron" unicode="&#x17d;" horiz-adv-x="598" 
d="M548 0h-497v111l318 460h-308v129h487v-111l-318 -460h318v-129zM475 907l-108 -157h-130l-108 157h103l70 -78l71 78h102z" />
    <glyph glyph-name="zcaron" unicode="&#x17e;" horiz-adv-x="481" 
d="M445 0h-406v100l236 320h-229v116h399v-100l-237 -320h237v-116zM421 750l-108 -157h-130l-108 157h103l70 -78l71 78h102z" />
    <glyph glyph-name="florin" unicode="&#x192;" horiz-adv-x="474" 
d="M446 573c-28.667 6 -48.333 8.99902 -59 8.99902c-40.667 0 -64 -22 -70 -66l-6 -51h104v-116h-122l-28 -198c-8 -55.333 -26.167 -95.166 -54.5 -119.499s-68.833 -36.5 -121.5 -36.5c-20 0 -39 1.66699 -57 5v118c10.667 -2 21.667 -3 33 -3c36 0 56.667 19.333 62 58
l24 176h-60v116h78l11 81c16 106 74.333 159 175 159c34 0 64.333 -3.66699 91 -11v-121z" />
    <glyph glyph-name="circumflex" unicode="&#x2c6;" 
d="M423 593h-103l-71 79l-71 -79h-101l108 157h130z" />
    <glyph glyph-name="caron" unicode="&#x2c7;" 
d="M423 750l-108 -157h-130l-108 157h103l70 -78l71 78h102z" />
    <glyph glyph-name="breve" unicode="&#x2d8;" 
d="M420 742c-4 -48.667 -21.5 -86.5 -52.5 -113.5s-70.167 -40.5 -117.5 -40.5s-86.5 13.5 -117.5 40.5s-48.5 64.833 -52.5 113.5h95c10.667 -40.667 35.667 -61 75 -61s64.333 20.333 75 61h95z" />
    <glyph glyph-name="dotaccent" unicode="&#x2d9;" 
d="M321 587h-142v132h142v-132z" />
    <glyph glyph-name="ring" unicode="&#x2da;" 
d="M366 705v-3c0 -30.667 -11.5 -57.5 -34.5 -80.5s-50.167 -34.5 -81.5 -34.5s-58.666 11.5 -81.999 34.5s-35 49.833 -35 80.5v3c0 31.333 11.667 58.5 35 81.5s50.666 34.5 81.999 34.5s58.5 -11.5 81.5 -34.5s34.5 -50.167 34.5 -81.5zM306 703v1.99902
c0 16 -5.5 30 -16.5 42s-24.167 18 -39.5 18c-16 0 -29.667 -6 -41 -18s-17 -26 -17 -42v-2c0 -15.333 5.83301 -29.166 17.5 -41.499s25.167 -18.5 40.5 -18.5s28.5 6 39.5 18s16.5 26 16.5 42z" />
    <glyph glyph-name="ogonek" unicode="&#x2db;" 
d="M369 -161c-63.333 -2.66699 -111.5 5.16699 -144.5 23.5s-49.5 46.5 -49.5 84.5c0 22.667 5.33301 44.667 16 66h95c-4 -14 -6 -28 -6 -42c0 -20 6.66699 -35.667 20 -47s36.333 -18.333 69 -21v-64z" />
    <glyph glyph-name="tilde" unicode="&#x2dc;" 
d="M438 720c-18.667 -86 -56.334 -129 -113.001 -129c-21.333 0 -50.333 8 -87 24c-24 11.333 -41 17 -51 17c-12.667 0 -22.334 -3.66699 -29.001 -11s-13.667 -20 -21 -38l-76 23c20 86 57.667 129 113 129c24 0 52.667 -7.66699 86 -23c21.333 -11.333 39 -17 53 -17
c12.667 0 22.334 3.83301 29.001 11.5s13.334 20.167 20.001 37.5z" />
    <glyph glyph-name="hungarumlaut" unicode="&#x2dd;" 
d="M457 715l-126 -122h-98l107 176zM271 715l-123 -122h-99l106 176z" />
    <glyph glyph-name="Omega" unicode="&#x3a9;" horiz-adv-x="674" 
d="M621 0l-258.998 -0.000976562v208c38 9.33301 66.833 30.666 86.5 63.999s29.5 73.666 29.5 120.999c0 54 -11.833 98.833 -35.5 134.5s-57.834 53.5 -102.501 53.5c-45.333 0 -80.333 -18.167 -105 -54.5s-37 -82.166 -37 -137.499c0 -46.667 9.66699 -86.167 29 -118.5
s47.666 -53.166 84.999 -62.499v-208h-259v126h160v27c-48.667 16 -87.5 47.667 -116.5 95s-43.5 100 -43.5 158c0 92.667 27.5 166.834 82.5 222.501s123.167 83.5 204.5 83.5c79.333 0 146 -27.667 200 -83s81 -129 81 -221c0 -58.667 -14.5 -112.5 -43.5 -161.5
s-67.833 -80.167 -116.5 -93.5v-27h160v-126z" />
    <glyph glyph-name="pi" unicode="&#x3c0;" 
d="M0 0v700h500v-700h-500zM81 49h339l-170 255zM49 96l171 254l-171 254v-508zM450 96v508l-171 -254zM250 395l170 255h-339z" />
    <glyph glyph-name="afii10023" unicode="&#x401;" horiz-adv-x="568" 
d="M524 0h-454v700h450v-130h-307v-153h270v-130h-270v-157h311v-130zM461 753h-134v125h134v-125zM261 753h-134v125h134v-125z" />
    <glyph glyph-name="afii10051" unicode="&#x402;" horiz-adv-x="737" 
d="M686 230c0 -76 -21.835 -134.166 -65.502 -174.499s-96.5 -60.5 -158.5 -60.5c-37.333 0 -68.666 5.66699 -93.999 17l21 125c20 -3.33301 33.333 -5 40 -5c27.333 0 51.833 8.16699 73.5 24.5s32.5 39.833 32.5 70.5c0 31.333 -8.16699 55.666 -24.5 72.999
s-40.5 26 -72.5 26c-49.333 0 -89.333 -12.333 -120 -37v-289h-145v568h-145v132h494v-132h-204v-161c58.667 30 110.334 45 155.001 45c58 0 108 -19 150 -57s63 -93 63 -165z" />
    <glyph glyph-name="afii10052" unicode="&#x403;" horiz-adv-x="509" 
d="M214 568v-568h-144v700h417v-132h-273zM438 872l-124 -122h-102l108 176z" />
    <glyph glyph-name="afii10053" unicode="&#x404;" horiz-adv-x="617" 
d="M356 -11c-90 0 -164.331 32.668 -222.998 98.001s-88 151 -88 257v11c0 102.667 28.5 187.5 85.5 254.5s130.167 100.5 219.5 100.5c50 0 92 -6.66699 126 -20s66.333 -33 97 -59l-59 -109c-46 38 -95.333 57 -148 57c-41.333 0 -77 -14.833 -107 -44.5
s-50 -69.834 -60 -120.501h235v-124h-236c9.33301 -52.667 29.666 -93.5 60.999 -122.5s69.666 -43.5 114.999 -43.5c48 0 96.667 20 146 60l67 -107c-58.667 -58.667 -135.667 -88 -231 -88z" />
    <glyph glyph-name="afii10054" unicode="&#x405;" horiz-adv-x="545" 
d="M508 198c0 -64 -21.334 -114.328 -64.001 -150.995s-98.334 -55 -167.001 -55c-94 0 -176 29 -246 87l64 114c61.333 -47.333 121 -71 179 -71c28 0 50 5.66699 66 17s24 27.666 24 48.999c0 19.333 -7.66699 35.666 -23 48.999s-47 30.333 -95 51
c-28.667 12 -51.667 22.333 -69 31s-35.166 19.5 -53.499 32.5s-32.333 26.167 -42 39.5s-17.667 29.666 -24 48.999s-9.5 41.333 -9.5 66c0 60.667 20.833 109.5 62.5 146.5s95.167 55.5 160.5 55.5c82 0 153.333 -22.667 214 -68l-56 -119c-58 38 -110 57 -156 57
c-25.333 0 -45.166 -5.66699 -59.499 -17s-21.5 -26.333 -21.5 -45c0 -20.667 7.5 -36.667 22.5 -48s49.167 -29 102.5 -53c68.667 -30.667 117.667 -61.334 147 -92.001s44 -72.334 44 -125.001z" />
    <glyph glyph-name="afii10055" unicode="&#x406;" horiz-adv-x="295" 
d="M219 0h-144v700h144v-700z" />
    <glyph glyph-name="afii10056" unicode="&#x407;" horiz-adv-x="295" 
d="M219 0h-144v700h144v-700zM315 753h-134v125h134v-125zM115 753h-134v125h134v-125z" />
    <glyph glyph-name="afii10057" unicode="&#x408;" horiz-adv-x="483" 
d="M422 222c0 -76 -20 -133.5 -60 -172.5s-94.667 -58.5 -164 -58.5c-72.667 0 -133.667 25.333 -183 76l67 113c35.333 -35.333 71 -53 107 -53c56.667 0 85 34.333 85 103v470h148v-478z" />
    <glyph glyph-name="afii10058" unicode="&#x409;" horiz-adv-x="964" 
d="M445 0v567.999h-161v-81c0 -134 -7.16699 -236.833 -21.5 -308.5s-35.833 -120.5 -64.5 -146.5s-69.334 -39 -122.001 -39c-19.333 0 -45 3 -77 9l15 122c6.66699 -2 14.667 -3 24 -3c15.333 0 28 2.33301 38 7s20 15.334 30 32.001s17.833 40.334 23.5 71.001
s10.167 72.667 13.5 126s5 118.666 5 195.999v147h441v-233h101c76 0 136 -20.667 180 -62s66 -98 66 -170c0 -74.667 -23.667 -132.5 -71 -173.5s-107.666 -61.5 -180.999 -61.5h-239zM589 129.999l100 0.000976562c32 0 57.167 9.16699 75.5 27.5s27.5 43.166 27.5 74.499
c0 34 -9.16699 59.833 -27.5 77.5s-43.833 26.5 -76.5 26.5h-99v-206z" />
    <glyph glyph-name="afii10059" unicode="&#x40a;" horiz-adv-x="982" 
d="M589 700v-255h130c72 0 129.167 -19.667 171.5 -59s63.5 -93.333 63.5 -162c0 -71.333 -22.5 -126.5 -67.5 -165.5s-102.833 -58.5 -173.5 -58.5h-268v311h-231v-311h-144v700h144v-255h231v255h144zM589 130l128.999 -0.000976562c28 0 50.333 8.33301 67 25
s25 38.667 25 66c0 30.667 -8.16699 53.834 -24.5 69.501s-39.166 23.5 -68.499 23.5h-128v-184z" />
    <glyph glyph-name="afii10060" unicode="&#x40b;" horiz-adv-x="737" 
d="M318 568l-0.00195312 -161.001c58.667 30 110.334 45 155.001 45c62.667 0 112.334 -18.167 149.001 -54.5s55 -93.166 55 -170.499v-227h-144v197c0 86 -31.667 129 -95 129c-49.333 0 -89.333 -12.333 -120 -37v-289h-145v568h-145v132h494v-132h-204z" />
    <glyph glyph-name="afii10061" unicode="&#x40c;" horiz-adv-x="632" 
d="M624 0h-171l-174 288l-65 -82v-206h-144v700h144v-302l228 302h172l-235 -296zM479 872l-124 -122h-102l108 176z" />
    <glyph glyph-name="afii10062" unicode="&#x40e;" horiz-adv-x="620" 
d="M167 -6c-44.667 0 -82.668 10.333 -114.001 31l45 105c24 -10 44.333 -15 61 -15c34 0 62 21.667 84 65l-233 520h158l151 -349l138 349h153l-223 -529c-26.667 -64 -56.167 -109.5 -88.5 -136.5s-76.166 -40.5 -131.499 -40.5zM320.999 743
c-42.667 0 -77.501 12.167 -104.501 36.5s-43.5 59.5 -49.5 105.5l82 15c10 -42.667 34 -64 72 -64c36.667 0 60.334 21.333 71.001 64l81 -15c-6 -46 -22.333 -81.167 -49 -105.5s-61 -36.5 -103 -36.5z" />
    <glyph glyph-name="afii10145" unicode="&#x40f;" horiz-adv-x="653" 
d="M70 0v700h143v-567h227v567h143v-700h-188v-131h-138v131h-187z" />
    <glyph glyph-name="afii10017" unicode="&#x410;" horiz-adv-x="672" 
d="M655 0h-149l-52 152h-240l-52 -152h-145l250 704h138zM410 280l-76 228l-77 -228h153z" />
    <glyph glyph-name="afii10018" unicode="&#x411;" horiz-adv-x="614" 
d="M70 0v700h461v-132h-317v-123h130c72 0 129.167 -19.667 171.5 -59s63.5 -93.333 63.5 -162c0 -71.333 -22.5 -126.5 -67.5 -165.5s-102.833 -58.5 -173.5 -58.5h-268zM214 130l128.999 -0.000976562c28.667 0 51.167 8.33301 67.5 25s24.5 38.667 24.5 66
c0 30.667 -8.16699 53.834 -24.5 69.501s-39.166 23.5 -68.499 23.5h-128v-184z" />
    <glyph glyph-name="afii10019" unicode="&#x412;" horiz-adv-x="624" 
d="M589 193c0 -62 -22.833 -109.666 -68.5 -142.999s-107.167 -50 -184.5 -50h-266v700h259c69.333 0 125 -16 167 -48s63 -77 63 -135c0 -69.333 -31.667 -120.333 -95 -153c40.667 -16.667 71.667 -37.834 93 -63.501s32 -60.167 32 -103.5v-4zM416 493.001
c0 52.667 -32.667 79 -98 79h-107v-159h100c70 0 105 26.667 105 80zM445 209.001c0 56 -36.332 83.999 -108.999 83.999h-125v-165h129c33.333 0 59.166 6.83301 77.499 20.5s27.5 33.834 27.5 60.501z" />
    <glyph glyph-name="afii10020" unicode="&#x413;" horiz-adv-x="509" 
d="M214 568v-568h-144v700h417v-132h-273z" />
    <glyph glyph-name="afii10021" unicode="&#x414;" horiz-adv-x="668" 
d="M434 568h-163v-11c0 -98 -4.5 -179.5 -13.5 -244.5s-24.5 -125.167 -46.5 -180.5h223v436zM511 0h-366l-14 -131h-124v263h55c24.667 60.667 42.5 127.5 53.5 200.5s16.5 166.5 16.5 280.5v87h446v-568h72l-18 -263h-121v131z" />
    <glyph glyph-name="afii10022" unicode="&#x415;" horiz-adv-x="568" 
d="M524 0h-454v700h450v-130h-307v-153h270v-130h-270v-157h311v-130z" />
    <glyph glyph-name="afii10024" unicode="&#x416;" horiz-adv-x="967" 
d="M411 0v176l-65 117l-169 -293h-169l233 390l-226 310h170l226 -320v320h144v-320l226 320h167l-223 -310l233 -390h-169l-170 293l-64 -117v-176h-144z" />
    <glyph glyph-name="afii10025" unicode="&#x417;" horiz-adv-x="556" 
d="M274 -10c-97.333 0 -181.332 28.999 -251.999 86.999l57 109c51.333 -42 106 -63 164 -63c84 0 126 27 126 81c0 29.333 -11.5 51.833 -34.5 67.5s-54.833 23.5 -95.5 23.5h-58v120h56c34 0 62.833 8.66699 86.5 26s35.5 38.333 35.5 63s-10.167 43.334 -30.5 56.001
s-47.5 19 -81.5 19c-54.667 0 -104 -20.333 -148 -61l-57 103c31.333 30 65.666 52.167 102.999 66.5s84.333 21.5 141 21.5c63.333 0 115 -17.167 155 -51.5s60 -78.5 60 -132.5c0 -74.667 -36.333 -128 -109 -160c82 -28 123 -83.667 123 -167
c0 -62 -22.167 -112.167 -66.5 -150.5s-102.5 -57.5 -174.5 -57.5z" />
    <glyph glyph-name="afii10026" unicode="&#x418;" horiz-adv-x="668" 
d="M598 700v-700h-142v439l-253 -439h-133v700h142v-433l252 433h134z" />
    <glyph glyph-name="afii10027" unicode="&#x419;" horiz-adv-x="668" 
d="M598 700v-700h-142v439l-253 -439h-133v700h142v-433l252 433h134zM338 743c-42.667 0 -77.501 12.167 -104.501 36.5s-43.5 59.5 -49.5 105.5l82 15c10 -42.667 34 -64 72 -64c36.667 0 60.334 21.333 71.001 64l81 -15c-6 -46 -22.333 -81.167 -49 -105.5
s-61 -36.5 -103 -36.5z" />
    <glyph glyph-name="afii10028" unicode="&#x41a;" horiz-adv-x="632" 
d="M624 0h-171l-174 288l-65 -82v-206h-144v700h144v-302l228 302h172l-235 -296z" />
    <glyph glyph-name="afii10029" unicode="&#x41b;" horiz-adv-x="659" 
d="M38 121c15.333 0 28.001 2.33203 38.001 6.99902s20 15.334 30 32.001s17.833 40.334 23.5 71.001s10.167 72.667 13.5 126s5 118.666 5 195.999v147h441v-700h-144v568h-161v-81c0 -134 -7.16699 -236.833 -21.5 -308.5s-35.833 -120.5 -64.5 -146.5
s-69.334 -39 -122.001 -39c-19.333 0 -45 3 -77 9l15 122c6.66699 -2 14.667 -3 24 -3z" />
    <glyph glyph-name="afii10030" unicode="&#x41c;" horiz-adv-x="753" 
d="M684 0h-142v447l-165 -289h-3l-164 286v-444h-140v700h152l154 -284l155 284h153v-700z" />
    <glyph glyph-name="afii10031" unicode="&#x41d;" horiz-adv-x="659" 
d="M589 0h-144v285h-231v-285h-144v700h144v-281h231v281h144v-700z" />
    <glyph glyph-name="afii10032" unicode="&#x41e;" horiz-adv-x="721" 
d="M676 345c0 -104 -29.667 -189.333 -89 -256s-135 -100 -227 -100c-92.667 0 -168.5 33 -227.5 99s-88.5 151 -88.5 255v12c0 104.667 29.667 190.167 89 256.5s135.333 99.5 228 99.5c92 0 167.5 -33 226.5 -99s88.5 -151 88.5 -255v-12zM527 343v12
c0 68 -15.5 122.167 -46.5 162.5s-71.167 60.5 -120.5 60.5c-50 0 -90.167 -19.833 -120.5 -59.5s-45.5 -93.5 -45.5 -161.5v-12c0 -68 15.5 -122.167 46.5 -162.5s71.167 -60.5 120.5 -60.5c50 0 90.167 19.833 120.5 59.5s45.5 93.5 45.5 161.5z" />
    <glyph glyph-name="afii10033" unicode="&#x41f;" horiz-adv-x="653" 
d="M70 0v700h513v-700h-144v568h-225v-568h-144z" />
    <glyph glyph-name="afii10034" unicode="&#x420;" horiz-adv-x="583" 
d="M558 458c0 -78 -24.5 -138.333 -73.5 -181s-111.833 -64 -188.5 -64h-82v-213h-144v700h232c78.667 0 141 -21.5 187 -64.5s69 -102.167 69 -177.5zM412 455c0 37.333 -10 65.667 -30 85s-48 29 -84 29h-84v-226h85c34.667 0 62.167 10.167 82.5 30.5
s30.5 47.5 30.5 81.5z" />
    <glyph glyph-name="afii10035" unicode="&#x421;" horiz-adv-x="617" 
d="M583 84c-31.333 -31.333 -64.8311 -54.834 -100.498 -70.501s-78.5 -23.5 -128.5 -23.5c-90 0 -164.167 32.667 -222.5 98s-87.5 151 -87.5 257v9c0 106 29.667 191.833 89 257.5s135.333 98.5 228 98.5c86 0 158.333 -26.667 217 -80l-68 -117
c-48.667 41.333 -97.334 62 -146.001 62c-50 0 -90.833 -19.667 -122.5 -59s-47.5 -92.666 -47.5 -159.999v-10c0 -68.667 15.667 -122.667 47 -162s72.666 -59 123.999 -59c50 0 99.667 21.333 149 64z" />
    <glyph glyph-name="afii10036" unicode="&#x422;" horiz-adv-x="551" 
d="M522 566h-174v-566h-145v566h-175v134h494v-134z" />
    <glyph glyph-name="afii10037" unicode="&#x423;" horiz-adv-x="620" 
d="M167 -6c-44.667 0 -82.668 10.333 -114.001 31l45 105c24 -10 44.333 -15 61 -15c34 0 62 21.667 84 65l-233 520h158l151 -349l138 349h153l-223 -529c-26.667 -64 -56.167 -109.5 -88.5 -136.5s-76.166 -40.5 -131.499 -40.5z" />
    <glyph glyph-name="afii10038" unicode="&#x424;" horiz-adv-x="825" 
d="M340 -22v77c-92.667 0 -167 27.667 -223 83s-84 126.333 -84 213c0 93.333 28.167 167.166 84.5 221.499s130.5 81.5 222.5 81.5v67h144v-67c92 0 166.167 -27.167 222.5 -81.5s84.5 -128.166 84.5 -221.499c0 -86.667 -28 -157.667 -84 -213s-130.333 -83 -223 -83v-77
h-144zM340 185l0.000976562 339c-48.667 0 -87.334 -14.667 -116.001 -44s-43 -71 -43 -125c0 -52.667 14.5 -94.167 43.5 -124.5s67.5 -45.5 115.5 -45.5zM484.001 185c48 0 86.501 15.167 115.501 45.5s43.5 71.833 43.5 124.5c0 54 -14.333 95.667 -43 125
s-67.334 44 -116.001 44v-339z" />
    <glyph glyph-name="afii10039" unicode="&#x425;" horiz-adv-x="630" 
d="M606 0h-165l-128 232l-129 -232h-160l205 357l-197 343h165l119 -219l121 219h160l-196 -343z" />
    <glyph glyph-name="afii10040" unicode="&#x426;" horiz-adv-x="672" 
d="M69 0v700h145v-568h225v568h144v-568h70l-18 -263h-119v131h-447z" />
    <glyph glyph-name="afii10041" unicode="&#x427;" horiz-adv-x="623" 
d="M409 0l0.00195312 259.001c-58.667 -30 -110.334 -45 -155.001 -45c-62.667 0 -112.334 18.167 -149.001 54.5s-55 93.166 -55 170.499v261h144v-221c0 -86 31.667 -129 95 -129c49.333 0 89.333 12.333 120 37v313h144v-700h-144z" />
    <glyph glyph-name="afii10042" unicode="&#x428;" horiz-adv-x="975" 
d="M905 700v-700h-835v700h144v-568h201v568h144v-568h202v568h144z" />
    <glyph glyph-name="afii10043" unicode="&#x429;" horiz-adv-x="994" 
d="M838 -131v131h-768v700h144v-568h201v568h144v-568h202v568h144v-568h71l-18 -263h-120z" />
    <glyph glyph-name="afii10044" unicode="&#x42a;" horiz-adv-x="683" 
d="M163 0l-0.000976562 568h-139v132h282v-233h102c76 0 136 -20.667 180 -62s66 -98 66 -170c0 -74.667 -23.667 -132.5 -71 -173.5s-107.666 -61.5 -180.999 -61.5h-239zM305.999 130l101 0.000976562c32 0 57.167 9.16699 75.5 27.5s27.5 43.166 27.5 74.499
c0 34 -9.16699 59.833 -27.5 77.5s-43.833 26.5 -76.5 26.5h-100v-206z" />
    <glyph glyph-name="afii10045" unicode="&#x42b;" horiz-adv-x="840" 
d="M69 0l-0.000976562 700h144v-233h102c76 0 136 -20.667 180 -62s66 -98 66 -170c0 -74.667 -23.667 -132.5 -71 -173.5s-107.666 -61.5 -180.999 -61.5h-240zM212.999 130l101 0.000976562c32 0 57.167 9.16699 75.5 27.5s27.5 43.166 27.5 74.499
c0 34 -9.16699 59.833 -27.5 77.5s-43.833 26.5 -76.5 26.5h-100v-206zM625.999 0.000976562v700h144v-700h-144z" />
    <glyph glyph-name="afii10046" unicode="&#x42c;" horiz-adv-x="589" 
d="M309 0h-240.001v700h144v-233h102c76 0 136 -20.667 180 -62s66 -98 66 -170c0 -74.667 -23.667 -132.5 -71 -173.5s-107.666 -61.5 -180.999 -61.5zM212.999 130l101 0.000976562c32 0 57.167 9.16699 75.5 27.5s27.5 43.166 27.5 74.499
c0 34 -9.16699 59.833 -27.5 77.5s-43.833 26.5 -76.5 26.5h-100v-206z" />
    <glyph glyph-name="afii10047" unicode="&#x42d;" horiz-adv-x="617" 
d="M261 -11c-95.333 0 -172.331 29.332 -230.998 87.999l67 107c49.333 -40 98 -60 146 -60c45.333 0 83.666 14.5 114.999 43.5s51.666 69.833 60.999 122.5h-236v124h235c-10 50.667 -30 90.834 -60 120.501s-65.667 44.5 -107 44.5c-52.667 0 -102 -19 -148 -57l-59 109
c30.667 26 63 45.667 97 59s76 20 126 20c89.333 0 162.5 -33.5 219.5 -100.5s85.5 -151.833 85.5 -254.5v-11c0 -106 -29.333 -191.667 -88 -257s-133 -98 -223 -98z" />
    <glyph glyph-name="afii10048" unicode="&#x42e;" horiz-adv-x="925" 
d="M586 -11c-78.667 0 -144.168 26.8311 -196.501 80.498s-83.833 125.834 -94.5 216.501h-81v-286h-145v700h145v-283h82c11.333 88.667 43.333 159.834 96 213.501s117.667 80.5 195 80.5c86.667 0 157.334 -33 212.001 -99s82 -151.667 82 -257v-11
c0 -104.667 -27.333 -190 -82 -256s-125.667 -99 -213 -99zM586.999 119.998c42 0 76.666 20.167 103.999 60.5s41 96.833 41 169.5c0 71.333 -14 127.333 -42 168s-62.667 61 -104 61c-42 0 -76.833 -20.167 -104.5 -60.5s-41.5 -96.5 -41.5 -168.5
c0 -72.667 13.833 -129.167 41.5 -169.5s62.834 -60.5 105.501 -60.5z" />
    <glyph glyph-name="afii10049" unicode="&#x42f;" horiz-adv-x="625" 
d="M555 700v-699.998h-145v230h-91l-129 -230h-165l148 260c-86.667 37.333 -130 107.666 -130 210.999c0 68.667 20.333 122.667 61 162s96.667 60.666 168 63.999c44 2 88.333 3 133 3h150zM299 358.002l111 0.000976562v210h-27c-23.333 0 -40.833 -0.166992 -52.5 -0.5
s-26.667 -1.5 -45 -3.5s-32 -5.16699 -41 -9.5s-18.5 -10.333 -28.5 -18s-17 -17.834 -21 -30.501s-6 -27.667 -6 -45c0 -32.667 9.83301 -58 29.5 -76s46.5 -27 80.5 -27z" />
    <glyph glyph-name="afii10065" unicode="&#x430;" horiz-adv-x="519" 
d="M467 0l-139.001 -0.000976562v57c-34.667 -44 -81 -66 -139 -66c-46 0 -84.167 14.333 -114.5 43s-45.5 68 -45.5 118v7c0 56.667 16.833 99.334 50.5 128.001s79.167 43 136.5 43c40 0 77.667 -7 113 -21v15c0 62.667 -34.333 94 -103 94
c-39.333 0 -82.666 -9.33301 -129.999 -28l-27 115c56 24.667 116 37 180 37c72.667 0 127.167 -18.667 163.5 -56s54.5 -91 54.5 -161v-325zM329.999 174.999l-0.000976562 45.998c-22.667 11.333 -49 17 -79 17c-26.667 0 -47.5 -6.16699 -62.5 -18.5
s-22.5 -30.166 -22.5 -53.499v-7c0 -21.333 6.33301 -37.666 19 -48.999s29.334 -17 50.001 -17c28 0 50.833 7.5 68.5 22.5s26.5 34.833 26.5 59.5z" />
    <glyph glyph-name="afii10066" unicode="&#x431;" horiz-adv-x="571" 
d="M314 519c60.667 0 112.835 -24.332 156.502 -72.999s65.5 -110.667 65.5 -186v-4c0 -78.667 -23.167 -142.834 -69.5 -192.501s-105.5 -74.5 -177.5 -74.5c-78 0 -138.333 26 -181 78s-64 126.333 -64 223v14c0 78 5.16699 142.167 15.5 192.5s31.5 91.5 63.5 123.5
c18 18 42.833 33 74.5 45s61 20.5 88 25.5s62.667 10.833 107 17.5s76.833 12 97.5 16l19 -117c-52.667 -10.667 -100.334 -19.334 -143.001 -26.001c-82.667 -12 -139 -28.667 -169 -50s-46.333 -52.666 -49 -93.999c11.333 20 31.166 38.667 59.499 56s63.833 26 106.5 26
zM395.001 252.001l0.000976562 12c0 41.333 -9.66699 75 -29 101s-45 39 -77 39c-32.667 0 -58.334 -12.667 -77.001 -38s-28 -58.666 -28 -99.999v-12c0 -40.667 9.83301 -74.167 29.5 -100.5s45.5 -39.5 77.5 -39.5s57.333 12.667 76 38s28 58.666 28 99.999z" />
    <glyph glyph-name="afii10067" unicode="&#x432;" horiz-adv-x="530" 
d="M57 536h238c53.333 0 96 -12.167 128 -36.5s48 -58.833 48 -103.5c0 -52.667 -24 -91.667 -72 -117c30.667 -12.667 54.167 -29.167 70.5 -49.5s24.5 -47.5 24.5 -81.5c0 -47.333 -17.5 -83.833 -52.5 -109.5s-81.833 -38.5 -140.5 -38.5h-244v536zM339 374
c0 36 -22.333 54 -67 54h-73v-109h69c47.333 0 71 18.333 71 55zM351 167c0 38.667 -25 58 -75 58h-77v-113h80c48 0 72 18.333 72 55z" />
    <glyph glyph-name="afii10068" unicode="&#x433;" horiz-adv-x="415" 
d="M57 0v536h344v-122h-202v-414h-142z" />
    <glyph glyph-name="afii10069" unicode="&#x434;" horiz-adv-x="570" 
d="M353 416h-115c0 -129.333 -13 -227 -39 -293h154v293zM421 0h-289.002l-12 -113h-118v236h53c32.667 73.333 49 192.333 49 357v56h391v-413h61c-1.33301 -29.333 -4.16602 -71 -8.49902 -125s-7.16602 -91 -8.49902 -111h-118v113z" />
    <glyph glyph-name="afii10070" unicode="&#x435;" horiz-adv-x="534" 
d="M498 261c0 -18 -0.666016 -33.667 -1.99902 -47h-320c12.667 -71.333 51.334 -107 116.001 -107c42 0 81.667 16.667 119 50l64 -86c-49.333 -54.667 -112 -82 -188 -82c-72.667 0 -132.834 25 -180.501 75s-71.5 115.667 -71.5 197v10
c0 79.333 22.167 144.833 66.5 196.5s100.5 77.5 168.5 77.5c73.333 0 129.666 -26.5 168.999 -79.5s59 -121.167 59 -204.5zM361.001 309c-3.33301 37.333 -12.833 66.668 -28.5 88.001s-36.5 32 -62.5 32s-47.167 -10.333 -63.5 -31s-26.833 -50.334 -31.5 -89.001h186z
" />
    <glyph glyph-name="afii10072" unicode="&#x436;" horiz-adv-x="783" 
d="M462 0h-142v132l-45 88l-118 -220h-155l172 303l-168 233h160l154 -228v228h142v-228l154 228h160l-168 -233l172 -303h-155l-118 220l-45 -88v-132z" />
    <glyph glyph-name="afii10073" unicode="&#x437;" horiz-adv-x="452" 
d="M219 -11c-83.333 0 -150.998 21.333 -202.998 64l49 101c43.333 -31.333 88.666 -47 135.999 -47c21.333 0 39.166 5.33301 53.499 16s21.5 24.334 21.5 41.001c0 17.333 -8 31.666 -24 42.999s-38 17 -66 17h-45v92h44c24 0 43.5 5.83301 58.5 17.5
s22.5 25.834 22.5 42.501c0 15.333 -6.83301 27.333 -20.5 36s-31.167 13 -52.5 13c-42 0 -81 -15 -117 -45c-6 11.333 -21.333 43.666 -46 96.999c52 44 116.333 66 193 66c52 0 95.333 -13.167 130 -39.5s52 -60.833 52 -103.5c0 -56.667 -26.667 -97 -80 -121
c60 -22.667 90 -65 90 -127c0 -48 -18.5 -87.167 -55.5 -117.5s-83.833 -45.5 -140.5 -45.5z" />
    <glyph glyph-name="afii10074" unicode="&#x438;" horiz-adv-x="561" 
d="M503 536v-536h-137v305l-174 -305h-135v536h138v-302l173 302h135z" />
    <glyph glyph-name="afii10075" unicode="&#x439;" horiz-adv-x="561" 
d="M503 536v-536h-137v305l-174 -305h-135v536h138v-302l173 302h135zM281 585c-41.333 0 -75.333 12.167 -102 36.5s-43 58.833 -49 103.5l81 14c10 -41.333 33.333 -62 70 -62c35.333 0 58.666 20.667 69.999 62l80 -14c-6 -44.667 -22.167 -79.167 -48.5 -103.5
s-60.166 -36.5 -101.499 -36.5z" />
    <glyph glyph-name="afii10076" unicode="&#x43a;" horiz-adv-x="535" 
d="M57 0v536h142v-219l157 219h160l-166 -222l183 -314h-164l-115 204l-55 -70v-134h-142z" />
    <glyph glyph-name="afii10077" unicode="&#x43b;" horiz-adv-x="566" 
d="M45 118c14 0 25 4.33203 33 12.999s15.667 26.834 23 54.501s12.5 70 15.5 127s4.5 131.5 4.5 223.5h387v-536h-142v416h-112c0 -110.667 -6.16699 -196.667 -18.5 -258s-30.666 -103.833 -54.999 -127.5s-57.833 -35.5 -100.5 -35.5c-32.667 0 -62 4.33301 -88 13
l19 115c5.33301 -3.33301 16.666 -5 33.999 -5z" />
    <glyph glyph-name="afii10078" unicode="&#x43c;" horiz-adv-x="644" 
d="M57 0v536h143l121 -214l123 214h143v-536h-142v319l-125 -212l-124 210v-317h-139z" />
    <glyph glyph-name="afii10079" unicode="&#x43d;" horiz-adv-x="553" 
d="M496 536v-536h-142v208h-155v-208h-142v536h142v-208h155v208h142z" />
    <glyph glyph-name="afii10080" unicode="&#x43e;" horiz-adv-x="578" 
d="M542 262c0 -79.333 -24 -144.666 -72 -195.999s-108.667 -77 -182 -77c-72.667 0 -132.834 25.5 -180.501 76.5s-71.5 116.167 -71.5 195.5v11c0 79.333 24 144.666 72 195.999s108.667 77 182 77c72.667 0 132.834 -25.5 180.501 -76.5s71.5 -116.167 71.5 -195.5v-11z
M401 260v12c0 44 -10.333 80 -31 108s-48 42 -82 42c-34.667 0 -62 -13.667 -82 -41s-30 -63 -30 -107v-12c0 -44 10.5 -80 31.5 -108s48.5 -42 82.5 -42s61 13.667 81 41s30 63 30 107z" />
    <glyph glyph-name="afii10081" unicode="&#x43f;" horiz-adv-x="551" 
d="M493 536v-536h-142v416h-152v-416h-142v536h436z" />
    <glyph glyph-name="afii10082" unicode="&#x440;" horiz-adv-x="587" 
d="M549 260c0 -86.667 -19.668 -153.332 -59.001 -199.999s-88 -70 -146 -70c-55.333 0 -103.666 26 -144.999 78v-219h-142v687h142v-74c38.667 56 87 84 145 84c57.333 0 105.833 -23.333 145.5 -70s59.5 -113.334 59.5 -200.001v-16zM407.999 262.002v12
c0 44.667 -10.167 80.5 -30.5 107.5s-45.5 40.5 -75.5 40.5s-54.833 -13.5 -74.5 -40.5s-29.5 -62.833 -29.5 -107.5v-12c0 -44.667 9.83301 -80.5 29.5 -107.5s44.5 -40.5 74.5 -40.5c30.667 0 56 13.5 76 40.5s30 62.833 30 107.5z" />
    <glyph glyph-name="afii10083" unicode="&#x441;" horiz-adv-x="485" 
d="M458 64c-24 -24.667 -49.499 -43.3311 -76.499 -55.998s-60.5 -19 -100.5 -19c-71.333 0 -130 25.5 -176 76.5s-69 116.167 -69 195.5v11c0 79.333 23.333 144.666 70 195.999s105.667 77 177 77s128.666 -22.333 171.999 -67l-64 -106
c-32.667 31.333 -67.334 47 -104.001 47c-32 0 -58.333 -13.333 -79 -40s-31 -61.667 -31 -105v-12c0 -44.667 10.5 -80.334 31.5 -107.001s48.833 -40 83.5 -40s69.334 15.667 104.001 47z" />
    <glyph glyph-name="afii10084" unicode="&#x442;" horiz-adv-x="440" 
d="M148 0v414h-135v122h413v-122h-134v-414h-144z" />
    <glyph glyph-name="afii10085" unicode="&#x443;" horiz-adv-x="529" 
d="M512 536l-180 -541c-18 -53.333 -39.333 -91.5 -64 -114.5s-58.667 -34.5 -102 -34.5c-44.667 0 -85.334 10.333 -122.001 31l42 106c22 -12.667 42.667 -19 62 -19c22.667 0 39.334 11.667 50.001 35l-181 537h148l101 -358l100 358h146z" />
    <glyph glyph-name="afii10086" unicode="&#x444;" horiz-adv-x="799" 
d="M471 393v-252.001c16.667 -18 35 -27 55 -27c30 0 53 12.833 69 38.5s24 61.834 24 108.501v11c0 46 -8 82.167 -24 108.5s-39 39.5 -69 39.5c-18.667 0 -37 -9 -55 -27zM328 140.999l-0.000976562 252.001c-18 18 -36.333 27 -55 27c-30 0 -53 -13.167 -69 -39.5
s-24 -62.5 -24 -108.5v-11c0 -46.667 7.83301 -82.834 23.5 -108.501s38.834 -38.5 69.501 -38.5c20 0 38.333 9 55 27zM470.999 -151l-142.998 0.000976562v189c-24 -30 -58.667 -45 -104 -45c-56 0 -101 23.667 -135 71s-51 117.333 -51 210c0 86.667 17 153.167 51 199.5
s79.333 69.5 136 69.5c41.333 0 75.666 -17 102.999 -51v208h143v-208c26 34 60.333 51 103 51c56.667 0 102 -23.167 136 -69.5s51 -112.833 51 -199.5v-14c0 -86.667 -17 -152.834 -51 -198.501s-79 -68.5 -135 -68.5c-46.667 0 -81.334 15 -104.001 45v-189z" />
    <glyph glyph-name="afii10087" unicode="&#x445;" horiz-adv-x="516" 
d="M497 0h-151l-90 168l-90 -168h-148l161 273l-155 263h150l85 -157l85 157h147l-156 -261z" />
    <glyph glyph-name="afii10088" unicode="&#x446;" horiz-adv-x="567" 
d="M419 -113v113h-362v536h142v-413h152v413h142v-413h61l-16 -236h-119z" />
    <glyph glyph-name="afii10089" unicode="&#x447;" horiz-adv-x="533" 
d="M334 0v187c-38.667 -20 -81.667 -30 -129 -30c-48 0 -86.833 14 -116.5 42s-44.5 69.667 -44.5 125v212h143v-170c0 -57.333 21.667 -86 65 -86c28 0 55.333 7 82 21v235h142v-536h-142z" />
    <glyph glyph-name="afii10090" unicode="&#x448;" horiz-adv-x="824" 
d="M767 536v-536h-710v536h142v-413h142v413h142v-413h142v413h142z" />
    <glyph glyph-name="afii10091" unicode="&#x449;" horiz-adv-x="841" 
d="M693 -113v113h-636v536h142v-413h142v413h142v-413h141v413h143v-413h61l-16 -236h-119z" />
    <glyph glyph-name="afii10092" unicode="&#x44a;" horiz-adv-x="569" 
d="M128 0v413.999h-115v122h257v-178h93c58 0 104 -15.833 138 -47.5s51 -75.167 51 -130.5c0 -57.333 -18.167 -101.666 -54.5 -132.999s-82.5 -47 -138.5 -47h-231zM270 110.999h69c22 0 39.167 6.33301 51.5 19s18.5 29.667 18.5 51c0 47.333 -23.667 71 -71 71h-68v-141
z" />
    <glyph glyph-name="afii10093" unicode="&#x44b;" horiz-adv-x="740" 
d="M57 0v535.999h142v-178h93c58 0 104 -15.833 138 -47.5s51 -75.167 51 -130.5c0 -57.333 -18.167 -101.666 -54.5 -132.999s-82.5 -47 -138.5 -47h-231zM199 110.999h69c22 0 39.167 6.33301 51.5 19s18.5 29.667 18.5 51c0 47.333 -23.667 71 -71 71h-68v-141z
M541 -0.000976562v536h142v-536h-142z" />
    <glyph glyph-name="afii10094" unicode="&#x44c;" horiz-adv-x="498" 
d="M57 0v535.999h142v-178h93c58 0 104 -15.833 138 -47.5s51 -75.167 51 -130.5c0 -57.333 -18.167 -101.666 -54.5 -132.999s-82.5 -47 -138.5 -47h-231zM199 110.999h69c22 0 39.167 6.33301 51.5 19s18.5 29.667 18.5 51c0 47.333 -23.667 71 -71 71h-68v-141z" />
    <glyph glyph-name="afii10095" unicode="&#x44d;" horiz-adv-x="488" 
d="M206 -11c-75.333 0 -136.667 23.667 -184 71l62 98c32.667 -28.667 66.334 -43 101.001 -43c31.333 0 57.666 8.83301 78.999 26.5s36 42.5 44 74.5h-157v103h157c-16 68 -55 102 -117 102c-37.333 0 -71.666 -13.333 -102.999 -40l-55 98c48.667 43.333 104 65 166 65
c73.333 0 133.666 -25.333 180.999 -76s71 -116 71 -196v-9c0 -80 -23 -145.667 -69 -197s-104.667 -77 -176 -77z" />
    <glyph glyph-name="afii10096" unicode="&#x44e;" horiz-adv-x="779" 
d="M500 -11c-62 0 -114.835 19.833 -158.502 59.5s-70.167 92.5 -79.5 158.5h-63v-207h-142v536h142v-208h63c10.667 64.667 37.834 117 81.501 157s96.167 60 157.5 60c70.667 0 128.667 -25.5 174 -76.5s68 -116.833 68 -197.5v-9c0 -80 -22.667 -145.5 -68 -196.5
s-103.666 -76.5 -174.999 -76.5zM500.998 111c32 0 57 14.1689 75 42.502s27 66.166 27 113.499c0 46.667 -9.5 84.167 -28.5 112.5s-43.833 42.5 -74.5 42.5c-32 0 -57 -14 -75 -42s-27 -65.667 -27 -113c0 -46.667 9.5 -84.334 28.5 -113.001s43.833 -43 74.5 -43z" />
    <glyph glyph-name="afii10097" unicode="&#x44f;" horiz-adv-x="534" 
d="M14 0l119 202c-64.667 28.667 -97 80.667 -97 156c0 62 19 107.167 57 135.5s88.667 42.5 152 42.5h232v-536h-142v175h-63l-97 -175h-161zM253 280l82 -0.000976562v144h-25c-19.333 0 -33.666 -0.166992 -42.999 -0.5s-20.833 -1.66602 -34.5 -3.99902
s-23.667 -6 -30 -11s-12 -12.333 -17 -22s-7.5 -21.5 -7.5 -35.5c0 -22.667 6.66699 -40.167 20 -52.5s31.666 -18.5 54.999 -18.5z" />
    <glyph glyph-name="afii10071" unicode="&#x451;" horiz-adv-x="534" 
d="M498 261c0 -18 -0.666016 -33.667 -1.99902 -47h-320c12.667 -71.333 51.334 -107 116.001 -107c42 0 81.667 16.667 119 50l64 -86c-49.333 -54.667 -112 -82 -188 -82c-72.667 0 -132.834 25 -180.501 75s-71.5 115.667 -71.5 197v10
c0 79.333 22.167 144.833 66.5 196.5s100.5 77.5 168.5 77.5c73.333 0 129.666 -26.5 168.999 -79.5s59 -121.167 59 -204.5zM361.001 309c-3.33301 37.333 -12.833 66.668 -28.5 88.001s-36.5 32 -62.5 32s-47.167 -10.333 -63.5 -31s-26.833 -50.334 -31.5 -89.001h186z
M440.001 596.002h-134v125h134v-125zM240.001 596.002h-134v125h134v-125z" />
    <glyph glyph-name="afii10099" unicode="&#x452;" horiz-adv-x="550" 
d="M338 -5c-18.667 0 -38.668 1.66699 -60.001 5v112c6 -1.33301 14.333 -2 25 -2c34 0 51 18.667 51 56v127c0 30.667 -6.66699 54.167 -20 70.5s-32 24.5 -56 24.5c-24.667 0 -44 -8.16699 -58 -24.5s-21 -39.833 -21 -70.5v-293h-142v550h-54v107h54v65h142v-65h152v-107
h-152v-116c39.333 54.667 85.333 82 138 82c50.667 0 89.834 -16.167 117.501 -48.5s41.5 -76.5 41.5 -132.5v-181c0 -106 -52.667 -159 -158 -159z" />
    <glyph glyph-name="afii10100" unicode="&#x453;" horiz-adv-x="415" 
d="M57 0v536h344v-122h-202v-414h-142zM381 715l-124 -122h-102l108 176z" />
    <glyph glyph-name="afii10101" unicode="&#x454;" horiz-adv-x="488" 
d="M282 -11c-71.333 0 -130.001 25.667 -176.001 77s-69 117 -69 197v9c0 80 23.667 145.333 71 196s107.666 76 180.999 76c62 0 117.333 -21.667 166 -65l-55 -98c-31.333 26.667 -65.666 40 -102.999 40c-62 0 -101 -34 -117 -102h157v-103h-157
c8 -32 22.667 -56.833 44 -74.5s47.666 -26.5 78.999 -26.5c34.667 0 68.334 14.333 101.001 43l62 -98c-47.333 -47.333 -108.666 -71 -183.999 -71z" />
    <glyph glyph-name="afii10102" unicode="&#x455;" horiz-adv-x="437" 
d="M405 156c0 -53.333 -17.498 -94.334 -52.498 -123.001s-80.167 -43 -135.5 -43c-71.333 0 -136 21.333 -194 64l46 105c52.667 -36.667 102 -55 148 -55c38.667 0 58 13.333 58 40v2c0 4 -0.666992 7.83301 -2 11.5s-3.66602 7.16699 -6.99902 10.5
s-6.83301 6.33301 -10.5 9s-8.66699 5.66699 -15 9l-17 9c-5 2.66699 -12.167 6 -21.5 10s-17 7.66699 -23 11c-43.333 19.333 -77.333 41 -102 65s-37 57 -37 99v2c0 50 17.167 89.5 51.5 118.5s78.166 43.5 131.499 43.5c60 0 115.667 -16 167 -48l-41 -108
c-48.667 28 -90.667 42 -126 42c-16.667 0 -29.5 -3.33301 -38.5 -10s-13.5 -15.334 -13.5 -26.001v-2c0 -4 0.666992 -7.66699 2 -11s3.66602 -6.66602 6.99902 -9.99902s6.66602 -6.33301 9.99902 -9s8.33301 -5.83398 15 -9.50098l17.5 -9.5l21 -11l22.5 -12
c22.667 -11.333 40.5 -21 53.5 -29s27 -18.667 42 -32s26 -28.166 33 -44.499s10.5 -35.166 10.5 -56.499v-2z" />
    <glyph glyph-name="afii10103" unicode="&#x456;" horiz-adv-x="267" 
d="M208 593h-148v129h148v-129zM204 0h-142v536h142v-536z" />
    <glyph glyph-name="afii10104" unicode="&#x457;" horiz-adv-x="267" 
d="M301 596h-134v125h134v-125zM101 596h-134v125h134v-125zM204 0h-142v536h142v-536z" />
    <glyph glyph-name="afii10105" unicode="&#x458;" horiz-adv-x="268" 
d="M208 593h-148v129h148v-129zM205 5c0 -106 -52.667 -159 -158 -159c-18.667 0 -38.667 1.66699 -60 5v112c6 -1.33301 14.333 -2 25 -2c34 0 51 18.667 51 56v519h142v-531z" />
    <glyph glyph-name="afii10106" unicode="&#x459;" horiz-adv-x="807" 
d="M366 0v415.998h-112c0 -110.667 -6.16699 -196.667 -18.5 -258s-30.666 -103.833 -54.999 -127.5s-57.833 -35.5 -100.5 -35.5c-32.667 0 -62 4.33301 -88 13l19 115c5.33301 -3.33301 16.666 -5 33.999 -5c14 0 25 4.33301 33 13s15.667 26.834 23 54.501
s12.5 70 15.5 127s4.5 131.5 4.5 223.5h387v-178h93c58 0 104 -15.833 138 -47.5s51 -75.167 51 -130.5c0 -57.333 -18.167 -101.666 -54.5 -132.999s-82.5 -47 -138.5 -47h-231zM508 110.998h69c22 0 39.167 6.33301 51.5 19s18.5 29.667 18.5 51
c0 47.333 -23.667 71 -71 71h-68v-141z" />
    <glyph glyph-name="afii10107" unicode="&#x45a;" horiz-adv-x="795" 
d="M354 0v237.999h-155v-238h-142v536h142v-178h155v178h142v-178h93c58 0 104 -15.833 138 -47.5s51 -75.167 51 -130.5c0 -57.333 -18.167 -101.666 -54.5 -132.999s-82.5 -47 -138.5 -47h-231zM496 110.999h69c22 0 39.167 6.33301 51.5 19s18.5 29.667 18.5 51
c0 47.333 -23.667 71 -71 71h-68v-141z" />
    <glyph glyph-name="afii10108" unicode="&#x45b;" horiz-adv-x="550" 
d="M3 657h53.999v65h142v-65h152v-107h-152v-116c39.333 54.667 85.333 82 138 82c50.667 0 89.834 -16.167 117.501 -48.5s41.5 -76.5 41.5 -132.5v-335h-142v293c0 30.667 -6.66699 54.167 -20 70.5s-32 24.5 -56 24.5c-24.667 0 -44 -8.16699 -58 -24.5
s-21 -39.833 -21 -70.5v-293h-142v550h-54v107z" />
    <glyph glyph-name="afii10109" unicode="&#x45c;" horiz-adv-x="535" 
d="M57 0v536h142v-219l157 219h160l-166 -222l183 -314h-164l-115 204l-55 -70v-134h-142zM430 715l-124 -122h-102l108 176z" />
    <glyph glyph-name="afii10110" unicode="&#x45e;" horiz-adv-x="529" 
d="M512 536l-180 -541c-18 -53.333 -39.333 -91.5 -64 -114.5s-58.667 -34.5 -102 -34.5c-44.667 0 -85.334 10.333 -122.001 31l42 106c22 -12.667 42.667 -19 62 -19c22.667 0 39.334 11.667 50.001 35l-181 537h148l101 -358l100 358h146zM266 585
c-41.333 0 -75.333 12.167 -102 36.5s-43 58.833 -49 103.5l81 14c10 -41.333 33.333 -62 70 -62c35.333 0 58.666 20.667 69.999 62l80 -14c-6 -44.667 -22.167 -79.167 -48.5 -103.5s-60.166 -36.5 -101.499 -36.5z" />
    <glyph glyph-name="afii10193" unicode="&#x45f;" horiz-adv-x="551" 
d="M342 -113h-132v113h-153v536h142v-413h152v413h142v-536h-151v-113z" />
    <glyph glyph-name="afii10050" unicode="&#x490;" horiz-adv-x="509" 
d="M70 700h280v131h119l18 -263h-273v-568h-144v700z" />
    <glyph glyph-name="afii10098" unicode="&#x491;" horiz-adv-x="415" 
d="M401 414h-202v-414h-142v536h209v114h119z" />
    <glyph glyph-name="endash" unicode="&#x2013;" horiz-adv-x="506" 
d="M459 243h-413v134h413v-134z" />
    <glyph glyph-name="emdash" unicode="&#x2014;" horiz-adv-x="831" 
d="M784 243h-738v134h738v-134z" />
    <glyph glyph-name="quoteleft" unicode="&#x2018;" horiz-adv-x="267" 
d="M238 646c-34 -4.66699 -58.833 -16.332 -74.5 -34.999s-22.167 -41.667 -19.5 -69h62v-153h-154v128c0 119.333 58 181.666 174 186.999z" />
    <glyph glyph-name="quoteright" unicode="&#x2019;" horiz-adv-x="267" 
d="M216 572c0 -119.333 -58.333 -181.667 -175 -187l-12 58c68 10 99.333 44.667 94 104h-62v153h155v-128z" />
    <glyph glyph-name="quotesinglbase" unicode="&#x201a;" horiz-adv-x="275" 
d="M217 25c0 -118.667 -59.667 -180.999 -179 -186.999l-11 59c35.333 4.66699 61 16.167 77 34.5s22.667 41.166 20 68.499h-62v153h155v-128z" />
    <glyph glyph-name="quotedblleft" unicode="&#x201c;" horiz-adv-x="502" 
d="M473 646c-34 -4.66699 -58.833 -16.332 -74.5 -34.999s-22.167 -41.667 -19.5 -69h62v-153h-155v128c0 119.333 58.333 181.666 175 186.999zM238 646.002c-34 -4.66699 -58.833 -16.332 -74.5 -34.999s-22.167 -41.667 -19.5 -69h62v-153h-154v128
c0 119.333 58 181.666 174 186.999z" />
    <glyph glyph-name="quotedblright" unicode="&#x201d;" horiz-adv-x="502" 
d="M451 572c0 -119.333 -58.333 -181.667 -175 -187l-12 58c68 10 99.333 44.667 94 104h-62v153h155v-128zM216 571.999c0 -119.333 -58.333 -181.667 -175 -187l-12 58c68 10 99.333 44.667 94 104h-62v153h155v-128z" />
    <glyph glyph-name="quotedblbase" unicode="&#x201e;" horiz-adv-x="513" 
d="M455 25c0 -118.667 -59.668 -180.999 -179.001 -186.999l-12 59c70.667 9.33301 103.334 43.666 98.001 102.999h-62v153h155v-128zM216.999 25.001c0 -118.667 -59.667 -180.999 -179 -186.999l-11 59c35.333 4.66699 61 16.167 77 34.5s22.667 41.166 20 68.499h-62
v153h155v-128z" />
    <glyph glyph-name="dagger" unicode="&#x2020;" horiz-adv-x="358" 
d="M209 508l11 -270h-83l11 270l-106 -10v82l105 -11l-14 131h91l-14 -131l105 11v-82z" />
    <glyph glyph-name="daggerdbl" unicode="&#x2021;" horiz-adv-x="377" 
d="M325 119l-105 10l14 -129h-91l14 129l-105 -10v82l105 -11l-11 160l11 158l-105 -10v82l105 -11l-14 131h91l-14 -131l105 11v-82l-106 10l11 -158l-11 -160l106 11v-82z" />
    <glyph glyph-name="bullet" unicode="&#x2022;" horiz-adv-x="455" 
d="M227 203c-38.667 0 -71.167 13.833 -97.5 41.5s-39.5 62.834 -39.5 105.501v6c0 42 13.167 76.833 39.5 104.5s58.833 41.5 97.5 41.5s71.334 -13.833 98.001 -41.5s40 -62.5 40 -104.5v-6c0 -42.667 -13.333 -77.834 -40 -105.501s-59.334 -41.5 -98.001 -41.5z" />
    <glyph glyph-name="ellipsis" unicode="&#x2026;" horiz-adv-x="808" 
d="M750 0h-152v151h152v-151zM480 0h-152v151h152v-151zM210 0h-152v151h152v-151z" />
    <glyph glyph-name="perthousand" unicode="&#x2030;" horiz-adv-x="1116" 
d="M344 530l0.000976562 -7.00098c0 -51.333 -14.333 -94 -43 -128s-65.667 -51 -111 -51c-44.667 0 -81 16.833 -109 50.5s-42 76.167 -42 127.5v6c0 51.333 14.167 94 42.5 128s65.166 51 110.499 51c44.667 0 81.167 -16.667 109.5 -50s42.5 -75.666 42.5 -126.999z
M562.001 699.999h105l-456 -700h-105zM1077 177.999l0.000976562 -7c0 -51.333 -14.333 -93.833 -43 -127.5s-65.667 -50.5 -111 -50.5c-44.667 0 -81 16.667 -109 50s-42 75.666 -42 126.999v6c0 51.333 14.167 94 42.5 128s65.166 51 110.499 51
c44.667 0 81.167 -16.667 109.5 -50s42.5 -75.666 42.5 -126.999zM734.002 177.999v-7c0 -51.333 -14.333 -93.833 -43 -127.5s-65.667 -50.5 -111 -50.5c-44.667 0 -81.167 16.667 -109.5 50s-42.5 75.666 -42.5 126.999v6c0 51.333 14.167 94 42.5 128
s65.166 51 110.499 51c44.667 0 81.334 -16.667 110.001 -50s43 -75.666 43 -126.999zM245.002 521.999l0.000976562 6c0 27.333 -5 49.333 -15 66s-23.333 25 -40 25s-29.834 -8.16699 -39.501 -24.5s-14.5 -38.166 -14.5 -65.499v-6c0 -27.333 5.16699 -49.333 15.5 -66
s23.833 -25 40.5 -25s29.667 8.16699 39 24.5s14 38.166 14 65.499zM979.003 169.999l-0.000976562 6c0 27.333 -5.16699 49.333 -15.5 66s-23.833 25 -40.5 25s-29.667 -8.16699 -39 -24.5s-14 -38.166 -14 -65.499v-6c0 -27.333 5 -49.333 15 -66s23.333 -25 40 -25
s29.834 8.16699 39.501 24.5s14.5 38.166 14.5 65.499zM635.002 169.999v6c0 27.333 -5 49.333 -15 66s-23.333 25 -40 25s-29.834 -8.16699 -39.501 -24.5s-14.5 -38.166 -14.5 -65.499v-6c0 -27.333 5 -49.333 15 -66s23.333 -25 40 -25s29.834 8.16699 39.501 24.5
s14.5 38.166 14.5 65.499z" />
    <glyph glyph-name="guilsinglleft" unicode="&#x2039;" horiz-adv-x="342" 
d="M303 97l-110 -57l-157 224v8l157 224l109 -55l-123 -172z" />
    <glyph glyph-name="guilsinglright" unicode="&#x203a;" horiz-adv-x="342" 
d="M307 264l-158 -224l-110 56l125 172l-124 171l109 57l158 -224v-8z" />
    <glyph glyph-name="fraction" unicode="&#x2044;" horiz-adv-x="452" 
d="M365 759h126l-425 -856h-126z" />
    <glyph glyph-name="Euro" unicode="&#x20ac;" horiz-adv-x="617" 
d="M584 91c-54.667 -68 -120.999 -101.997 -198.999 -101.997c-67.333 0 -123.833 20.167 -169.5 60.5s-77.167 97.166 -94.5 170.499h-82v97h68v70h-68v97h84c18 71.333 50 127 96 167s101.667 60 167 60c45.333 0 83.166 -8 113.499 -24s57.833 -39.333 82.5 -70l-81 -99
c-35.333 41.333 -73.333 62 -114 62c-54.667 0 -92.667 -32 -114 -96h159v-97h-178c-0.666992 -6.66699 -1 -17.334 -1 -32.001v-9c0 -12.667 0.333008 -22.334 1 -29.001h178v-97h-161c20.667 -66.667 61 -100 121 -100c22 0 41.5 5 58.5 15s35.833 26.333 56.5 49z" />
    <glyph glyph-name="afii61352" unicode="&#x2116;" horiz-adv-x="1022" 
d="M612 0h-125l-276 423v-423h-141v700h133l266 -408v408h143v-700zM982 403c0 -51.333 -14.833 -93.332 -44.5 -125.999s-67.167 -49 -112.5 -49c-44.667 0 -81.667 16.167 -111 48.5s-44 74.166 -44 125.499v7c0 50 14.833 91.333 44.5 124s66.834 49 111.501 49
c45.333 0 82.666 -16.167 111.999 -48.5s44 -73.833 44 -124.5v-6zM974 97.001h-286v84h286v-84zM888 403.001v6c0 25.333 -5.83301 46.333 -17.5 63s-26.5 25 -44.5 25c-19.333 0 -34.333 -8 -45 -24s-16 -37 -16 -63v-7c0 -26 5.66699 -47.333 17 -64s26 -25 44 -25
c19.333 0 34.5 8 45.5 24s16.5 37.667 16.5 65z" />
    <glyph glyph-name="published" unicode="&#x2117;" horiz-adv-x="737" 
d="M693 355l0.000976562 -10.001c0 -100.667 -31.5 -185.167 -94.5 -253.5s-140.167 -102.5 -231.5 -102.5s-168 34 -230 102s-93 152.333 -93 253v10c0 100.667 31.333 185.334 94 254.001s139.667 103 231 103s168.166 -34.167 230.499 -102.5s93.5 -152.833 93.5 -253.5z
M652.001 344.999v10c0 90 -26.833 165.333 -80.5 226s-121.167 91 -202.5 91c-82 0 -150 -30.5 -204 -91.5s-81 -136.5 -81 -226.5v-11c0 -90 26.833 -165.167 80.5 -225.5s121.167 -90.5 202.5 -90.5c82 0 150 30.5 204 91.5s81 136.5 81 226.5zM522.001 415.999
l0.000976562 -1c0 -42 -13.5 -74.667 -40.5 -98s-61.5 -35.333 -103.5 -36h-45v-117h-80v385h128c43.333 0 77.666 -11.833 102.999 -35.5s38 -56.167 38 -97.5zM441.002 413.999c0 20 -5.5 35.5 -16.5 46.5s-26.167 16.5 -45.5 16.5h-46v-125h47
c18.667 0 33.5 5.66699 44.5 17s16.5 26.333 16.5 45z" />
    <glyph glyph-name="trademark" unicode="&#x2122;" horiz-adv-x="612" 
d="M510 592l-72 -130h-4l-71 130v-203h-66v311h72l68 -123l67 123h71v-311h-65v203zM167 638v-249h-69v249h-76v62h220v-62h-75z" />
    <glyph glyph-name="partialdiff" unicode="&#x2202;" 
d="M0 0v700h500v-700h-500zM81 49h339l-170 255zM49 96l171 254l-171 254v-508zM450 96v508l-171 -254zM250 395l170 255h-339z" />
    <glyph glyph-name="Delta" unicode="&#x2206;" horiz-adv-x="638" 
d="M17 0l236 700h133l235 -700h-604zM209 130h215l-107 348z" />
    <glyph glyph-name="product" unicode="&#x220f;" 
d="M0 0v700h500v-700h-500zM81 49h339l-170 255zM49 96l171 254l-171 254v-508zM450 96v508l-171 -254zM250 395l170 255h-339z" />
    <glyph glyph-name="summation" unicode="&#x2211;" 
d="M0 0v700h500v-700h-500zM81 49h339l-170 255zM49 96l171 254l-171 254v-508zM450 96v508l-171 -254zM250 395l170 255h-339z" />
    <glyph glyph-name="minus" unicode="&#x2212;" 
d="M0 0v700h500v-700h-500zM81 49h339l-170 255zM49 96l171 254l-171 254v-508zM450 96v508l-171 -254zM250 395l170 255h-339z" />
    <glyph glyph-name="radical" unicode="&#x221a;" horiz-adv-x="570" 
d="M76 231h-87v98h148l93 -218l258 687h112l-359 -926z" />
    <glyph glyph-name="infinity" unicode="&#x221e;" 
d="M0 0v700h500v-700h-500zM81 49h339l-170 255zM49 96l171 254l-171 254v-508zM450 96v508l-171 -254zM250 395l170 255h-339z" />
    <glyph glyph-name="integral" unicode="&#x222b;" 
d="M0 0v700h500v-700h-500zM81 49h339l-170 255zM49 96l171 254l-171 254v-508zM450 96v508l-171 -254zM250 395l170 255h-339z" />
    <glyph glyph-name="approxequal" unicode="&#x2248;" horiz-adv-x="555" 
d="M121 384l-69 21c21.333 103.333 65.333 155 132 155c18 0 50.333 -6.5 97 -19.5s74.334 -19.5 83.001 -19.5c34 0 56.667 15.667 68 47l70 -21c-21.333 -103.333 -65.333 -155 -132 -155c-18 0 -50.5 6.5 -97.5 19.5s-74.833 19.5 -83.5 19.5
c-32.667 0 -55.334 -15.667 -68.001 -47zM121 128l-69 21c21.333 103.333 65.333 155 132 155c18 0 50.333 -6.5 97 -19.5s74.334 -19.5 83.001 -19.5c34 0 56.667 15.667 68 47l70 -21c-21.333 -103.333 -65.333 -155 -132 -155c-18 0 -50.5 6.5 -97.5 19.5
s-74.833 19.5 -83.5 19.5c-32.667 0 -55.334 -15.667 -68.001 -47z" />
    <glyph glyph-name="notequal" unicode="&#x2260;" horiz-adv-x="555" 
d="M46 50l67 110h-59v133h141l72 118h-213v133h295l66 108h89l-66 -108h63v-133h-145l-72 -118h217v-133h-299l-67 -110h-89z" />
    <glyph glyph-name="lessequal" unicode="&#x2264;" 
d="M0 0v700h500v-700h-500zM81 49h339l-170 255zM49 96l171 254l-171 254v-508zM450 96v508l-171 -254zM250 395l170 255h-339z" />
    <glyph glyph-name="greaterequal" unicode="&#x2265;" 
d="M0 0v700h500v-700h-500zM81 49h339l-170 255zM49 96l171 254l-171 254v-508zM450 96v508l-171 -254zM250 395l170 255h-339z" />
    <glyph glyph-name="lozenge" unicode="&#x25ca;" horiz-adv-x="555" 
d="M517 356l-186 -391h-128l-183 391l184 391h127zM373 356l-105 249l-104 -249l104 -250z" />
    <glyph glyph-name="cyrbreve" unicode="&#xf6d1;" 
d="M249 585c-41.333 0 -75.333 12.167 -102 36.5s-43 58.833 -49 103.5l81 14c10 -41.333 33.333 -62 70 -62c35.333 0 58.666 20.667 69.999 62l80 -14c-6 -44.667 -22.167 -79.167 -48.5 -103.5s-60.166 -36.5 -101.499 -36.5z" />
    <glyph glyph-name="cyrBreve" unicode="&#xf6d4;" 
d="M248 586c-42.667 0 -77.501 12.167 -104.501 36.5s-43.5 59.5 -49.5 105.5l82 15c10 -42.667 34 -64 72 -64c36.667 0 60.334 21.333 71.001 64l81 -15c-6 -46 -22.333 -81.167 -49 -105.5s-61 -36.5 -103 -36.5z" />
    <glyph glyph-name="apple" unicode="&#xf8ff;" 
d="M0 0v700h500v-700h-500zM81 49h339l-170 255zM49 96l171 254l-171 254v-508zM450 96v508l-171 -254zM250 395l170 255h-339z" />
    <glyph glyph-name="ff" unicode="&#xfb00;" horiz-adv-x="672" 
d="M324 416h-103.001v-416h-141v416h-54v117h54v35c0 106.667 52 160 156 160c33.333 0 63 -4 89 -12v-117c-17.333 6 -34.666 9 -51.999 9c-35.333 0 -53 -18.333 -53 -55v-20h104v-117zM659.999 416h-103v-416h-141v416h-54v117h54v35c0 106.667 52 160 156 160
c33.333 0 63 -4 89 -12v-117c-16.667 6 -34 9 -52 9c-35.333 0 -53 -18.333 -53 -55v-20h104v-117z" />
    <glyph glyph-name=".null" horiz-adv-x="0" 
 />
    <glyph glyph-name="nonmarkingreturn" horiz-adv-x="333" 
 />
    </font>
</defs>
</svg>
